<svg width="48" height="34" viewBox="0 0 48 34" fill="none" xmlns="http://www.w3.org/2000/svg">
<path fill-rule="evenodd" clip-rule="evenodd" d="M2 17.951L2.43539 18.3837C2.28446 18.2454 2.13919 18.1011 2 17.951Z" fill="#FF6637"/>
<path d="M7.5 5.35193C3.35786 5.35193 0 8.70979 0 12.8519C0 14.821 0.758825 16.6129 2 17.951L2.43539 18.3837L17.2929 33.1492C17.6838 33.5377 18.3152 33.5367 18.7049 33.147L20.6464 31.2055C20.8417 31.0102 20.8417 30.6936 20.6464 30.4984L13.3371 23.189C13.1484 23.0003 13.1412 22.6966 13.3207 22.4992L17.6732 17.7114C17.8552 17.5112 17.845 17.2026 17.6501 17.0149L12.8501 12.3917C12.6552 12.204 12.645 11.8952 12.8272 11.6951L14.4626 9.89807C14.6423 9.70061 14.6351 9.39678 14.4463 9.20798L13.0903 7.85193C11.717 6.31756 9.72125 5.35193 7.5 5.35193Z" fill="#FF6637"/>
<path d="M36 12.8519C36 8.70979 32.6421 5.35193 28.5 5.35193C26.2787 5.35193 24.283 6.31756 22.9097 7.85193L18.3659 12.4793C18.1664 12.6824 18.1766 13.0108 18.3882 13.2013L22.6265 17.0158C22.8325 17.2012 22.8484 17.5187 22.662 17.7238L18.3233 22.4963C18.1427 22.6949 18.1512 23.0007 18.3426 23.189L23.1481 27.9177C23.3432 28.1096 23.6563 28.1091 23.8507 27.9165L32.9978 18.8541C34.8207 17.4859 36 15.3066 36 12.8519Z" fill="#FF6637"/>
<path d="M36 0.351929L36.4079 2.45207C37.3408 7.25534 41.0966 11.0111 45.8999 11.944L48 12.3519L45.8999 12.7598C41.0966 13.6927 37.3408 17.4485 36.4079 22.2518L36 24.3519L35.5921 22.2518C34.6592 17.4485 30.9034 13.6927 26.1001 12.7598L24 12.3519L26.1001 11.944C30.9034 11.0111 34.6592 7.25534 35.5921 2.45207L36 0.351929Z" fill="#FFFF00"/>
</svg>
