<svg width="40" height="37" viewBox="0 0 40 37" fill="none" xmlns="http://www.w3.org/2000/svg">
<path d="M0.754375 10.6733C3.92798 19.1626 3.92798 19.1626 3.92798 19.1626L16.7086 15.9662L15.3129 7.01831C14.1944 1.77143 10.4709 -0.833546 6.1894 0.237248C1.56056 1.39491 -0.560775 6.31778 0.754375 10.6733Z" fill="#FFFCC6"/>
<path d="M38.9859 19.0768C35.8123 27.5661 35.8123 27.5661 35.8123 27.5661L23.0316 24.3697L24.4274 15.4218C25.5459 10.1749 29.2694 7.56997 33.5508 8.64076C38.1797 9.79843 40.301 14.7213 38.9859 19.0768Z" fill="#FFFCC6"/>
<path d="M22.132 30.1374L22.4881 27.8542L34.4888 30.8555L33.6011 33.0618C32.5301 35.9554 29.4937 37.5879 26.5556 36.804C23.6969 36.0413 21.7113 33.1989 22.132 30.1374Z" fill="#FFFCC6"/>
<path d="M17.6083 21.7339L17.2521 19.4507L5.25143 22.452L6.13909 24.6583C7.21011 27.5519 10.2465 29.1844 13.1847 28.4005C16.0433 27.6378 18.0289 24.7954 17.6083 21.7339Z" fill="#FFFCC6"/>
</svg>
