<svg width="39" height="36" viewBox="0 0 39 36" fill="none" xmlns="http://www.w3.org/2000/svg">
<path d="M28.4935 28.099V35.699C28.4935 35.8094 28.583 35.899 28.6935 35.899H32.2935C32.4039 35.899 32.4935 35.8094 32.4935 35.699V28.099C32.4935 27.9885 32.583 27.899 32.6935 27.899H38.0481C38.2207 27.899 38.3122 27.6951 38.1976 27.5661L30.643 19.0671C30.5634 18.9776 30.4236 18.9776 30.344 19.0671L22.7894 27.5661C22.6747 27.6951 22.7663 27.899 22.9389 27.899H28.2935C28.4039 27.899 28.4935 27.9885 28.4935 28.099Z" fill="#FFFDE3"/>
<path fill-rule="evenodd" clip-rule="evenodd" d="M0.800296 8.11268C3.26814 8.11268 12.454 2.70423 16.7385 0C21.0229 2.70423 30.2088 8.11268 32.6766 8.11268C32.7898 9.86194 32.7585 12.0357 32.4913 14.3969C31.5819 14.0195 30.586 13.9112 29.6269 14.0721C29.7599 12.4631 29.7656 10.9867 29.6882 9.76056C27.6831 9.76056 20.2196 5.25352 16.7385 3C13.2573 5.25352 5.79383 9.76056 3.7887 9.76056C3.37097 16.3803 5.37609 30.2958 16.7385 33C17.8606 32.7329 18.8914 32.3565 19.8377 31.8886C20.6766 32.5151 21.7315 32.899 22.9389 32.899H23.4505C21.5811 34.3085 19.3625 35.3911 16.7385 36C2.75401 32.7549 0.286162 16.0563 0.800296 8.11268ZM26.6998 11.4085C26.7735 12.6232 26.7492 14.1452 26.5624 15.7955L19.0523 24.2443C17.6336 25.8404 17.4294 27.8778 18.0888 29.5748C17.659 29.741 17.2092 29.8835 16.7385 30C7.99818 27.8366 6.45578 16.7042 6.77711 11.4085C8.31951 11.4085 14.0607 7.80282 16.7385 6C19.4162 7.80282 25.1574 11.4085 26.6998 11.4085Z" fill="#FFFDE3"/>
</svg>
