<svg width="33" height="30" viewBox="0 0 33 30" fill="none" xmlns="http://www.w3.org/2000/svg">
<path d="M4.18434 11.6683L0.648804 8.1328L8.1771 0.604499L13.8716 6.29904L19.6292 0.541473L25.1669 6.07916L29.0734 2.17264L32.5915 5.69074L25.1669 13.1154L23.6488 11.5973L21.6488 9.59726L19.6322 7.58066L13.8716 13.3412L8.19154 7.66113L4.18434 11.6683Z" fill="#D900FF"/>
<path d="M4.18434 27.4681L0.648804 23.9326L8.1771 16.4043L13.8716 22.0988L19.6292 16.3412L25.1669 21.8789L29.0734 17.9724L32.5915 21.4905L25.1669 28.9151L23.6488 27.397L21.6488 25.397L19.6322 23.3804L13.8716 29.141L8.19154 23.4609L4.18434 27.4681Z" fill="#D900FF"/>
</svg>
