<svg width="36" height="29" viewBox="0 0 36 29" fill="none" xmlns="http://www.w3.org/2000/svg">
<path d="M0 7.76395C0 3.62181 3.35786 0.263947 7.5 0.263947C9.72125 0.263947 11.717 1.22957 13.0903 2.76395L17.2929 6.96657C17.6834 7.3571 18.3166 7.3571 18.7071 6.96657L22.9097 2.76395C24.283 1.22957 26.2787 0.263947 28.5 0.263947C32.6421 0.263947 36 3.62181 36 7.76395C36 10.2187 34.8207 12.3979 32.9978 13.7661L18.7049 28.059C18.3152 28.4487 17.6838 28.4497 17.2929 28.0612L2.43539 13.2957C2.28446 13.1574 2.13919 13.0131 2 12.863C0.758825 11.5249 0 9.73303 0 7.76395Z" fill="#FFFF00"/>
</svg>
