<svg width="37" height="36" viewBox="0 0 37 36" fill="none" xmlns="http://www.w3.org/2000/svg">
<path d="M21.3701 3C21.3701 4.65685 20.027 6 18.3701 6C16.7133 6 15.3701 4.65685 15.3701 3C15.3701 1.34315 16.7133 0 18.3701 0C20.027 0 21.3701 1.34315 21.3701 3Z" fill="#FF9600"/>
<path d="M21.3701 33C21.3701 34.6569 20.027 36 18.3701 36C16.7133 36 15.3701 34.6569 15.3701 33C15.3701 31.3431 16.7133 30 18.3701 30C20.027 30 21.3701 31.3431 21.3701 33Z" fill="#FF9600"/>
<path d="M6.37012 18C6.37012 19.6569 5.02697 21 3.37012 21C1.71326 21 0.370117 19.6569 0.370117 18C0.370117 16.3431 1.71326 15 3.37012 15C5.02697 15 6.37012 16.3431 6.37012 18Z" fill="#FF9600"/>
<path d="M36.3701 18C36.3701 19.6569 35.027 21 33.3701 21C31.7133 21 30.3701 19.6569 30.3701 18C30.3701 16.3431 31.7133 15 33.3701 15C35.027 15 36.3701 16.3431 36.3701 18Z" fill="#FF9600"/>
<path d="M9.88481 5.27208C11.0564 6.44365 11.0564 8.34315 9.88481 9.51472C8.71323 10.6863 6.81374 10.6863 5.64217 9.51472C4.47059 8.34315 4.47059 6.44365 5.64217 5.27208C6.81374 4.10051 8.71323 4.10051 9.88481 5.27208Z" fill="#FF9600"/>
<path d="M31.098 26.4853C32.2696 27.6569 32.2696 29.5563 31.098 30.7279C29.9264 31.8995 28.0269 31.8995 26.8554 30.7279C25.6838 29.5563 25.6838 27.6569 26.8554 26.4853C28.0269 25.3137 29.9264 25.3137 31.098 26.4853Z" fill="#FF9600"/>
<path d="M9.88481 26.4853C11.0564 27.6569 11.0564 29.5563 9.88481 30.7279C8.71323 31.8995 6.81374 31.8995 5.64217 30.7279C4.47059 29.5563 4.47059 27.6569 5.64217 26.4853C6.81374 25.3137 8.71323 25.3137 9.88481 26.4853Z" fill="#FF9600"/>
<path d="M31.098 5.27208C32.2696 6.44365 32.2696 8.34315 31.098 9.51472C29.9264 10.6863 28.0269 10.6863 26.8554 9.51472C25.6838 8.34315 25.6838 6.44365 26.8554 5.27208C28.0269 4.10051 29.9264 4.10051 31.098 5.27208Z" fill="#FF9600"/>
<path d="M26.3701 18C26.3701 22.4183 22.7884 26 18.3701 26C13.9518 26 10.3701 22.4183 10.3701 18C10.3701 13.5817 13.9518 10 18.3701 10C22.7884 10 26.3701 13.5817 26.3701 18Z" fill="#FF9600"/>
</svg>
