<svg width="32" height="34" viewBox="0 0 32 34" fill="none" xmlns="http://www.w3.org/2000/svg">
<path d="M3.23645 3.83824C4.65048 1.95781 6.90178 0.74147 9.43749 0.74147C11.4226 0.74147 13.2333 1.4869 14.6045 2.71281L20.6201 7.74147C22.0354 8.8748 24.3145 9.51566 26.453 9.51566C27.7855 9.51566 29.4635 8.91452 30.5392 8.46137C30.8609 8.32584 31.1952 8.6898 31.0159 8.98933C30.2614 10.2499 28.9544 12.3804 28.0037 13.6447C26.5897 15.5251 24.3384 16.7415 21.8027 16.7415C19.8176 16.7415 18.0068 15.996 16.6356 14.7701L9.95419 9.51566C8.53883 8.38234 6.92564 7.96728 4.78714 7.96728C3.45466 7.96728 1.77664 8.56842 0.701 9.02157C0.379292 9.1571 0.0449845 8.79314 0.224269 8.49361C0.978752 7.23307 2.28577 5.1025 3.23645 3.83824Z" fill="#9DF2FF"/>
<path d="M3.23645 20.6382C4.65048 18.7578 6.90178 17.5415 9.43749 17.5415C11.4226 17.5415 13.2333 18.2869 14.6045 19.5128L20.6201 24.5415C22.0354 25.6748 24.3145 26.3157 26.453 26.3157C27.7855 26.3157 29.4635 25.7145 30.5392 25.2614C30.8609 25.1258 31.1952 25.4898 31.0159 25.7893C30.2614 27.0499 28.9544 29.1804 28.0037 30.4447C26.5897 32.3251 24.3384 33.5415 21.8027 33.5415C19.8176 33.5415 18.0068 32.796 16.6356 31.5701L9.95419 26.3157C8.53883 25.1823 6.92564 24.7673 4.78714 24.7673C3.45466 24.7673 1.77664 25.3684 0.701 25.8216C0.379292 25.9571 0.0449845 25.5931 0.224269 25.2936C0.978752 24.0331 2.28577 21.9025 3.23645 20.6382Z" fill="#9DF2FF"/>
</svg>
