<svg width="32" height="36" viewBox="0 0 32 36" fill="none" xmlns="http://www.w3.org/2000/svg">
<path d="M18.955 2.5C18.955 3.88071 17.8357 5 16.455 5C15.0743 5 13.955 3.88071 13.955 2.5C13.955 1.11929 15.0743 0 16.455 0C17.8357 0 18.955 1.11929 18.955 2.5Z" fill="#8FF7FF"/>
<path d="M18.955 33.5C18.955 34.8807 17.8357 36 16.455 36C15.0743 36 13.955 34.8807 13.955 33.5C13.955 32.1193 15.0743 31 16.455 31C17.8357 31 18.955 32.1193 18.955 33.5Z" fill="#8FF7FF"/>
<path d="M2.20506 23.3349C3.40079 22.6446 4.92976 23.0543 5.62012 24.25C6.30745 25.4405 5.90435 26.9613 4.72072 27.6559C4.71551 27.659 4.71029 27.662 4.70506 27.6651C3.50932 28.3554 1.98035 27.9457 1.28999 26.75C0.599637 25.5543 1.00932 24.0253 2.20506 23.3349Z" fill="#8FF7FF"/>
<path d="M28.1201 8.25C29.3158 7.55964 30.8448 7.96933 31.5352 9.16506C32.2255 10.3608 31.8158 11.8898 30.6201 12.5801C29.4244 13.2705 27.8954 12.8608 27.205 11.6651C26.5177 10.4746 26.9208 8.95374 28.1044 8.25912C28.1096 8.25606 28.1149 8.25302 28.1201 8.25Z" fill="#8FF7FF"/>
<path d="M28.12 27.6651C28.1169 27.6633 28.1138 27.6614 28.1106 27.6596C26.9222 26.9667 26.5164 25.4426 27.205 24.25C27.8953 23.0543 29.4243 22.6446 30.62 23.3349C31.8158 24.0253 32.2255 25.5543 31.5351 26.75C30.8448 27.9457 29.3158 28.3554 28.12 27.6651Z" fill="#8FF7FF"/>
<path d="M2.12005 12.5801C0.924315 11.8898 0.514627 10.3608 1.20498 9.16506C1.89534 7.96933 3.42431 7.55964 4.62005 8.25C4.62318 8.25181 4.62632 8.25363 4.62944 8.25545C5.81792 8.94838 6.22365 10.4725 5.53511 11.6651C4.84475 12.8608 3.31578 13.2705 2.12005 12.5801Z" fill="#8FF7FF"/>
<path d="M18.955 2.5C18.955 3.88071 17.8357 5 16.455 5C15.0743 5 13.955 3.88071 13.955 2.5V13.6661L4.62944 8.25545C5.81792 8.94838 6.22365 10.4725 5.53511 11.6651C4.84475 12.8608 3.31578 13.2705 2.12005 12.5801L11.4158 17.9734L2.20506 23.3349C3.40079 22.6446 4.92976 23.0543 5.62012 24.25C6.30745 25.4405 5.90435 26.9613 4.72072 27.6559L13.955 22.2807V33.5C13.955 32.1193 15.0743 31 16.455 31C17.8357 31 18.955 32.1193 18.955 33.5V22.3476L28.1106 27.6596C26.9222 26.9667 26.5164 25.4426 27.205 24.25C27.8953 23.0543 29.4243 22.6446 30.62 23.3349L21.3669 17.9663L30.6201 12.5801C29.4244 13.2705 27.8954 12.8608 27.205 11.6651C26.5177 10.4746 26.9208 8.95374 28.1044 8.25912L18.955 13.5849V2.5Z" fill="#8FF7FF"/>
</svg>
