<svg width="39" height="32" viewBox="0 0 39 32" fill="none" xmlns="http://www.w3.org/2000/svg">
<path d="M30.0368 13.6667C30.0368 14.5871 29.2906 15.3333 28.3701 15.3333C27.4496 15.3333 26.7034 14.5871 26.7034 13.6667C26.7034 12.7462 27.4496 12 28.3701 12C29.2906 12 30.0368 12.7462 30.0368 13.6667Z" fill="#FF9600"/>
<path d="M30.0368 30.3333C30.0368 31.2538 29.2906 32 28.3701 32C27.4496 32 26.7034 31.2538 26.7034 30.3333C26.7034 29.4129 27.4496 28.6667 28.3701 28.6667C29.2906 28.6667 30.0368 29.4129 30.0368 30.3333Z" fill="#FF9600"/>
<path d="M21.7034 22C21.7034 22.9205 20.9573 23.6667 20.0368 23.6667C19.1163 23.6667 18.3701 22.9205 18.3701 22C18.3701 21.0795 19.1163 20.3333 20.0368 20.3333C20.9573 20.3333 21.7034 21.0795 21.7034 22Z" fill="#FF9600"/>
<path d="M38.3701 22C38.3701 22.9205 37.6239 23.6667 36.7034 23.6667C35.783 23.6667 35.0368 22.9205 35.0368 22C35.0368 21.0795 35.783 20.3333 36.7034 20.3333C37.6239 20.3333 38.3701 21.0795 38.3701 22Z" fill="#FF9600"/>
<path d="M23.6561 14.9289C24.3069 15.5798 24.3069 16.6351 23.6561 17.286C23.0052 17.9368 21.9499 17.9368 21.299 17.286C20.6482 16.6351 20.6482 15.5798 21.299 14.9289C21.9499 14.2781 23.0052 14.2781 23.6561 14.9289Z" fill="#FF9600"/>
<path d="M35.4412 26.714C36.092 27.3649 36.092 28.4202 35.4412 29.0711C34.7903 29.7219 33.735 29.7219 33.0842 29.0711C32.4333 28.4202 32.4333 27.3649 33.0842 26.714C33.735 26.0632 34.7903 26.0632 35.4412 26.714Z" fill="#FF9600"/>
<path d="M23.6561 26.714C24.3069 27.3649 24.3069 28.4202 23.6561 29.0711C23.0052 29.7219 21.9499 29.7219 21.299 29.0711C20.6482 28.4202 20.6482 27.3649 21.299 26.714C21.9499 26.0632 23.0052 26.0632 23.6561 26.714Z" fill="#FF9600"/>
<path d="M35.4412 14.9289C36.092 15.5798 36.092 16.6351 35.4412 17.286C34.7903 17.9368 33.735 17.9368 33.0842 17.286C32.4333 16.6351 32.4333 15.5798 33.0842 14.9289C33.735 14.2781 34.7903 14.2781 35.4412 14.9289Z" fill="#FF9600"/>
<path d="M32.8146 22C32.8146 24.4546 30.8247 26.4444 28.3701 26.4444C25.9155 26.4444 23.9257 24.4546 23.9257 22C23.9257 19.5454 25.9155 17.5556 28.3701 17.5556C30.8247 17.5556 32.8146 19.5454 32.8146 22Z" fill="#FF9600"/>
<path d="M0.370117 24.5833V20.4167C0.370117 20.1865 0.550647 20 0.773342 20H3.1927L5.61205 17.0833L2.58995 13.5701C2.45873 13.4176 2.38625 13.2206 2.38625 13.0165V10.8333C2.38625 10.3731 2.74731 10 3.1927 10H5.84826C6.16319 10 6.4185 10.2638 6.4185 10.5893C6.4185 10.7455 6.35843 10.8954 6.25148 11.0059L5.20883 12.0833L13.2733 20.8333L14.7192 19.3393C14.8262 19.2287 14.9712 19.1667 15.1224 19.1667C15.4374 19.1667 15.6927 19.4305 15.6927 19.7559V22.5C15.6927 22.9602 15.3316 23.3333 14.8862 23.3333H11.9671C11.7695 23.3333 11.5789 23.2584 11.4313 23.1228L8.03141 20L5.20883 22.0833V24.5833C5.20883 24.8134 5.0283 25 4.8056 25H0.773342C0.550647 25 0.370117 24.8134 0.370117 24.5833Z" fill="#FF9600"/>
<path d="M8.03141 12.5L19.725 0H25.3701V5.83333L12.8701 17.5L10.854 15.4167L18.0008 8.33333L20.5314 5L17.1944 7.5L10.0475 14.5833L8.03141 12.5Z" fill="#FF9600"/>
</svg>
