<svg width="55" height="36" viewBox="0 0 55 36" fill="none" xmlns="http://www.w3.org/2000/svg">
<path d="M28.3718 28.099V35.699C28.3718 35.8094 28.4614 35.899 28.5718 35.899H32.1718C32.2823 35.899 32.3718 35.8094 32.3718 35.699V28.099C32.3718 27.9885 32.4614 27.899 32.5718 27.899H37.9265C38.099 27.899 38.1906 27.6951 38.076 27.5661L30.5213 19.0671C30.4418 18.9776 30.3019 18.9776 30.2224 19.0671L22.6677 27.5661C22.5531 27.6951 22.6446 27.899 22.8172 27.899H28.1718C28.2823 27.899 28.3718 27.9885 28.3718 28.099Z" fill="#FFCE00"/>
<path d="M44.6151 28.099V35.699C44.6151 35.8094 44.7047 35.899 44.8151 35.899H48.4151C48.5256 35.899 48.6151 35.8094 48.6151 35.699V28.099C48.6151 27.9885 48.7047 27.899 48.8151 27.899H54.1697C54.3423 27.899 54.4339 27.6951 54.3192 27.5661L46.7646 19.0671C46.685 18.9776 46.5452 18.9776 46.4656 19.0671L38.911 27.5661C38.7964 27.6951 38.8879 27.899 39.0605 27.899H44.4151C44.5256 27.899 44.6151 27.9885 44.6151 28.099Z" fill="#FFCE00"/>
<path d="M28.3718 28.099V35.699C28.3718 35.8094 28.4614 35.899 28.5718 35.899H32.1718C32.2823 35.899 32.3718 35.8094 32.3718 35.699V28.099C32.3718 27.9885 32.4614 27.899 32.5718 27.899H37.9265C38.099 27.899 38.1906 27.6951 38.076 27.5661L30.5213 19.0671C30.4418 18.9776 30.3019 18.9776 30.2224 19.0671L22.6677 27.5661C22.5531 27.6951 22.6446 27.899 22.8172 27.899H28.1718C28.2823 27.899 28.3718 27.9885 28.3718 28.099Z" fill="#FFCE00"/>
<path fill-rule="evenodd" clip-rule="evenodd" d="M0.678653 8.11268C3.1465 8.11268 12.3324 2.70423 16.6168 0C20.9013 2.70423 30.0871 8.11268 32.555 8.11268C32.6682 9.86194 32.6368 12.0357 32.3697 14.3969C31.4603 14.0195 30.4643 13.9112 29.5053 14.0721C29.6382 12.4631 29.644 10.9867 29.5666 9.76056C27.5615 9.76056 20.0979 5.25352 16.6168 3C13.1357 5.25352 5.67218 9.76056 3.66706 9.76056C3.24933 16.3803 5.25445 30.2958 16.6168 33C17.7389 32.7329 18.7698 32.3565 19.7161 31.8886C20.555 32.5151 21.6098 32.899 22.8172 32.899H23.3289C21.4594 34.3085 19.2409 35.3911 16.6168 36C2.63236 32.7549 0.164519 16.0563 0.678653 8.11268ZM26.5782 11.4085C26.6519 12.6232 26.6275 14.1452 26.4407 15.7955L18.9307 24.2443C17.5119 25.8404 17.3077 27.8778 17.9671 29.5748C17.5373 29.741 17.0875 29.8835 16.6168 30C7.87654 27.8366 6.33413 16.7042 6.65547 11.4085C8.19787 11.4085 13.939 7.80282 16.6168 6C19.2946 7.80282 25.0358 11.4085 26.5782 11.4085Z" fill="#FFCE00"/>
</svg>
