<svg width="41" height="38" viewBox="0 0 41 38" fill="none" xmlns="http://www.w3.org/2000/svg">
<path d="M23.122 21.5608C23.3172 21.756 23.3172 22.0726 23.122 22.2679L21.7077 23.6821C21.5125 23.8773 21.1959 23.8773 21.0006 23.6821L6.42219 9.10363C6.22693 8.90837 5.91035 8.90837 5.71509 9.10363L3.84209 10.9766C3.57062 11.2481 3.10717 11.125 3.00616 10.7546L0.463056 1.43003C0.36126 1.05678 0.703745 0.714295 1.077 0.81609L10.4016 3.35916C10.772 3.46018 10.8951 3.92363 10.6236 4.1951L8.54352 6.2752C8.34825 6.47047 8.34825 6.78705 8.54352 6.98231L23.122 21.5608Z" fill="#FFCE00"/>
<path d="M8.99986 36.5305C8.25249 37.271 7.04076 37.271 6.29339 36.5305C5.54602 35.7901 5.54602 34.5896 6.29339 33.8492L8.27397 31.8006C6.05635 28.991 4.73286 25.443 4.73286 21.5859C4.73286 18.7967 5.42493 16.1691 6.64672 13.8656C6.9471 13.2992 7.70518 13.2151 8.15848 13.6683L10.4837 15.9935C10.7875 16.2974 10.8591 16.7596 10.6925 17.1557C10.1192 18.5181 9.80227 20.015 9.80227 21.5859C9.80227 24.0101 10.5569 26.2581 11.8442 28.1077L15.7329 24.0859C16.4802 23.3454 17.692 23.3454 18.4393 24.0859C19.1867 24.8263 19.1867 26.0268 18.4393 26.7672L8.99986 36.5305Z" fill="#FFCE00"/>
<path d="M25.9999 19.0859C25.2525 19.8263 24.0408 19.8263 23.2934 19.0859C22.546 18.3454 22.546 17.145 23.2934 16.4045L27.5168 12.036C25.7137 10.8472 23.5541 10.1553 21.2329 10.1553C19.5602 10.1553 17.9715 10.5146 16.5396 11.1601C16.1389 11.3408 15.6632 11.2736 15.3524 10.9628L13.0472 8.65759C12.5992 8.20955 12.6752 7.46151 13.229 7.1537C15.5995 5.83625 18.3286 5.08588 21.2329 5.08588C24.925 5.08588 28.3338 6.29854 31.0829 8.3473L32.7147 6.65938L32.7329 6.64119C33.4802 5.90076 34.692 5.90076 35.4393 6.64119C36.1867 7.38162 36.1867 8.5821 35.4393 9.32253L25.9999 19.0859Z" fill="#FFCE00"/>
<path d="M25.2984 36.9444C24.9835 37.2593 24.4449 37.0363 24.4449 36.5908V23.005C24.4449 22.5596 24.9835 22.3365 25.2984 22.6515L32.0913 29.4444C32.2866 29.6396 32.2866 29.9562 32.0913 30.1515L25.2984 36.9444Z" fill="#FFCE00"/>
<path d="M33.2984 36.9444C32.9835 37.2593 32.4449 37.0363 32.4449 36.5908V23.005C32.4449 22.5596 32.9835 22.3365 33.2984 22.6515L40.0913 29.4444C40.2866 29.6396 40.2866 29.9562 40.0913 30.1515L33.2984 36.9444Z" fill="#FFCE00"/>
</svg>
