<svg width="41" height="37" viewBox="0 0 41 37" fill="none" xmlns="http://www.w3.org/2000/svg">
<path d="M30.8413 28.599V36.199C30.8413 36.3094 30.9309 36.399 31.0413 36.399H34.6413C34.7518 36.399 34.8413 36.3094 34.8413 36.199V28.599C34.8413 28.4885 34.9309 28.399 35.0413 28.399H40.396C40.5685 28.399 40.6601 28.1951 40.5454 28.0661L32.9908 19.5671C32.9113 19.4776 32.7714 19.4776 32.6918 19.5671L25.1372 28.0661C25.0226 28.1951 25.1141 28.399 25.2867 28.399H30.6413C30.7518 28.399 30.8413 28.4885 30.8413 28.599Z" fill="#FFFDE3"/>
<path d="M22.7634 20.7628C22.9586 20.9581 22.9586 21.2747 22.7634 21.47L21.3492 22.8842C21.1539 23.0794 20.8373 23.0794 20.6421 22.8842L6.06361 8.30571C5.86835 8.11045 5.55177 8.11045 5.35651 8.30571L3.48351 10.1787C3.21204 10.4502 2.74859 10.3271 2.64757 9.95671L0.104474 0.632112C0.002678 0.258863 0.345164 -0.0836249 0.718414 0.0181702L10.043 2.56124C10.4134 2.66226 10.5365 3.12571 10.265 3.39718L8.18493 5.47728C7.98967 5.67255 7.98967 5.98913 8.18493 6.18439L22.7634 20.7628Z" fill="#FFFDE3"/>
<path d="M8.64128 35.7326C7.89391 36.4731 6.68218 36.4731 5.93481 35.7326C5.18744 34.9922 5.18744 33.7917 5.93481 33.0513L7.91539 31.0026C5.69776 28.1931 4.37428 24.6451 4.37428 20.788C4.37428 17.9988 5.06635 15.3712 6.28814 13.0676C6.58852 12.5013 7.3466 12.4171 7.7999 12.8704L10.1251 15.1956C10.4289 15.4994 10.5006 15.9617 10.3339 16.3577C9.76058 17.7202 9.44369 19.2171 9.44369 20.788C9.44369 23.2122 10.1984 25.4602 11.4856 27.3097L15.3743 23.2879C16.1217 22.5475 17.3334 22.5475 18.0808 23.2879C18.8281 24.0284 18.8281 25.2289 18.0808 25.9693L8.64128 35.7326Z" fill="#FFFDE3"/>
<path d="M25.6413 18.2879C24.8939 19.0284 23.6822 19.0284 22.9348 18.2879C22.1874 17.5475 22.1874 16.347 22.9348 15.6066L27.1582 11.2381C25.3551 10.0493 23.1955 9.35738 20.8743 9.35738C19.2016 9.35738 17.6129 9.71664 16.1811 10.3622C15.7803 10.5429 15.3047 10.4757 14.9938 10.1648L12.6886 7.85967C12.2406 7.41163 12.3166 6.66359 12.8704 6.35578C15.2409 5.03833 17.97 4.28796 20.8743 4.28796C24.5664 4.28796 27.9753 5.50062 30.7243 7.54938L32.3562 5.86145L32.3743 5.84327C33.1217 5.10284 34.3334 5.10284 35.0807 5.84327C35.8281 6.5837 35.8281 7.78418 35.0807 8.52461L25.6413 18.2879Z" fill="#FFFDE3"/>
</svg>
