<svg width="37" height="32" viewBox="0 0 37 32" fill="none" xmlns="http://www.w3.org/2000/svg">
<path d="M0.370117 24.5833V20.4167C0.370117 20.1865 0.550648 20 0.773343 20H3.1927L5.61205 17.0833L2.58995 13.5701C2.45873 13.4176 2.38625 13.2206 2.38625 13.0165V10.8333C2.38625 10.3731 2.74731 10 3.1927 10H5.84826C6.1632 10 6.4185 10.2638 6.4185 10.5893C6.4185 10.7455 6.35842 10.8954 6.25148 11.0059L5.20883 12.0833L13.2733 20.8333L14.7192 19.3393C14.8262 19.2287 14.9712 19.1667 15.1224 19.1667C15.4374 19.1667 15.6927 19.4305 15.6927 19.7559V22.5C15.6927 22.9602 15.3316 23.3333 14.8862 23.3333H11.9671C11.7695 23.3333 11.5789 23.2584 11.4313 23.1228L8.03141 20L5.20883 22.0833V24.5833C5.20883 24.8134 5.0283 25 4.8056 25H0.773343C0.550648 25 0.370117 24.8134 0.370117 24.5833Z" fill="#8FF7FF"/>
<path d="M8.03141 12.5L19.725 0H25.3701V5.83333L12.8701 17.5L10.854 15.4167L18.0008 8.33333L20.5314 5L17.1944 7.5L10.0475 14.5833L8.03141 12.5Z" fill="#8FF7FF"/>
<path d="M28.871 13.3889C28.871 14.156 28.2211 14.7778 27.4194 14.7778C26.6178 14.7778 25.9679 14.156 25.9679 13.3889C25.9679 12.6218 26.6178 12 27.4194 12C28.2211 12 28.871 12.6218 28.871 13.3889Z" fill="#8FF7FF"/>
<path d="M28.871 30.6111C28.871 31.3782 28.2211 32 27.4194 32C26.6178 32 25.9679 31.3782 25.9679 30.6111C25.9679 29.8441 26.6178 29.2222 27.4194 29.2222C28.2211 29.2222 28.871 29.8441 28.871 30.6111Z" fill="#8FF7FF"/>
<path d="M19.1455 24.9639C19.8398 24.5803 20.7275 24.8079 21.1284 25.4722C21.5275 26.1336 21.2934 26.9785 20.6062 27.3644C20.6031 27.3661 20.6001 27.3678 20.5971 27.3695C19.9028 27.753 19.015 27.5254 18.6142 26.8611C18.2134 26.1968 18.4512 25.3474 19.1455 24.9639Z" fill="#8FF7FF"/>
<path d="M34.1925 16.5833C34.8868 16.1998 35.7746 16.4274 36.1754 17.0917C36.5762 17.756 36.3384 18.6054 35.6441 18.989C34.9498 19.3725 34.062 19.1449 33.6612 18.4806C33.2621 17.8192 33.4962 16.9743 34.1834 16.5884C34.1864 16.5867 34.1895 16.585 34.1925 16.5833Z" fill="#8FF7FF"/>
<path d="M34.1925 27.3695C34.1907 27.3685 34.1888 27.3675 34.187 27.3665C33.497 26.9815 33.2614 26.1348 33.6612 25.4722C34.062 24.8079 34.9498 24.5803 35.6441 24.9639C36.3383 25.3474 36.5762 26.1968 36.1754 26.8611C35.7745 27.5254 34.8868 27.753 34.1925 27.3695Z" fill="#8FF7FF"/>
<path d="M19.0961 18.989C18.4019 18.6054 18.164 17.756 18.5648 17.0917C18.9657 16.4274 19.8534 16.1998 20.5477 16.5833C20.5495 16.5843 20.5514 16.5854 20.5532 16.5864C21.2432 16.9713 21.4788 17.818 21.079 18.4806C20.6782 19.1449 19.7904 19.3725 19.0961 18.989Z" fill="#8FF7FF"/>
<path d="M28.871 13.3889C28.871 14.156 28.2211 14.7778 27.4194 14.7778C26.6178 14.7778 25.9679 14.156 25.9679 13.3889V19.5923L20.5532 16.5864C21.2432 16.9713 21.4788 17.818 21.079 18.4806C20.6782 19.1449 19.7904 19.3725 19.0961 18.989L24.4935 21.9852L19.1455 24.9639C19.8398 24.5803 20.7275 24.8079 21.1284 25.4722C21.5275 26.1336 21.2934 26.9785 20.6062 27.3644L25.9679 24.3782V30.6111C25.9679 29.8441 26.6178 29.2222 27.4194 29.2222C28.2211 29.2222 28.871 29.8441 28.871 30.6111V24.4153L34.187 27.3665C33.497 26.9815 33.2614 26.1348 33.6612 25.4722C34.062 24.8079 34.9498 24.5803 35.6441 24.9639L30.2714 21.9813L35.6441 18.989C34.9498 19.3725 34.062 19.1449 33.6612 18.4806C33.2621 17.8192 33.4962 16.9743 34.1834 16.5884L28.871 19.5472V13.3889Z" fill="#8FF7FF"/>
<path d="M0.370117 24.5833V20.4167C0.370117 20.1865 0.550648 20 0.773343 20H3.1927L5.61205 17.0833L2.58995 13.5701C2.45873 13.4176 2.38625 13.2206 2.38625 13.0165V10.8333C2.38625 10.3731 2.74731 10 3.1927 10H5.84826C6.1632 10 6.4185 10.2638 6.4185 10.5893C6.4185 10.7455 6.35842 10.8954 6.25148 11.0059L5.20883 12.0833L13.2733 20.8333L14.7192 19.3393C14.8262 19.2287 14.9712 19.1667 15.1224 19.1667C15.4374 19.1667 15.6927 19.4305 15.6927 19.7559V22.5C15.6927 22.9602 15.3316 23.3333 14.8862 23.3333H11.9671C11.7695 23.3333 11.5789 23.2584 11.4313 23.1228L8.03141 20L5.20883 22.0833V24.5833C5.20883 24.8134 5.0283 25 4.8056 25H0.773343C0.550648 25 0.370117 24.8134 0.370117 24.5833Z" fill="#8FF7FF"/>
</svg>
