<svg width="55" height="37" viewBox="0 0 55 37" fill="none" xmlns="http://www.w3.org/2000/svg">
<path d="M28.6185 28.9979V36.5979C28.6185 36.7084 28.708 36.7979 28.8185 36.7979H32.4185C32.5289 36.7979 32.6185 36.7084 32.6185 36.5979V28.9979C32.6185 28.8875 32.708 28.7979 32.8185 28.7979H38.1731C38.3457 28.7979 38.4372 28.594 38.3226 28.465L30.768 19.9661C30.6884 19.8766 30.5485 19.8766 30.469 19.9661L22.9144 28.465C22.7997 28.594 22.8913 28.7979 23.0638 28.7979H28.4185C28.5289 28.7979 28.6185 28.8875 28.6185 28.9979Z" fill="#FFCE00"/>
<path d="M22.7429 21.1618C22.9382 21.3571 22.9382 21.6736 22.7429 21.8689L21.3287 23.2831C21.1335 23.4784 20.8169 23.4784 20.6216 23.2831L6.04317 8.70467C5.8479 8.50941 5.53132 8.50941 5.33606 8.70467L3.46306 10.5777C3.1916 10.8491 2.72814 10.7261 2.62713 10.3557L0.0840276 1.03107C-0.0177688 0.657823 0.324717 0.315335 0.697967 0.41713L10.0226 2.9602C10.393 3.06122 10.5161 3.52467 10.2446 3.79614L8.16449 5.87624C7.96922 6.07151 7.96922 6.38809 8.16449 6.58335L22.7429 21.1618Z" fill="#FFCE00"/>
<path d="M8.62083 36.1316C7.87346 36.872 6.66173 36.872 5.91436 36.1316C5.16699 35.3911 5.16699 34.1907 5.91436 33.4502L7.89494 31.4016C5.67732 28.5921 4.35383 25.044 4.35383 21.1869C4.35383 18.3977 5.0459 15.7702 6.26769 13.4666C6.56807 12.9003 7.32615 12.8161 7.77945 13.2694L10.1046 15.5946C10.4085 15.8984 10.4801 16.3607 10.3135 16.7567C9.74013 18.1191 9.42325 19.616 9.42325 21.1869C9.42325 23.6111 10.1779 25.8591 11.4651 27.7087L15.3538 23.6869C16.1012 22.9465 17.3129 22.9465 18.0603 23.6869C18.8077 24.4273 18.8077 25.6278 18.0603 26.3682L8.62083 36.1316Z" fill="#FFCE00"/>
<path d="M25.6208 18.6869C24.8735 19.4273 23.6617 19.4273 22.9144 18.6869C22.167 17.9465 22.167 16.746 22.9144 16.0056L27.1377 11.6371C25.3347 10.4482 23.1751 9.75634 20.8538 9.75634C19.1812 9.75634 17.5925 10.1156 16.1606 10.7612C15.7598 10.9419 15.2842 10.8747 14.9734 10.5638L12.6682 8.25863C12.2201 7.81059 12.2961 7.06255 12.85 6.75474C15.2205 5.43729 17.9495 4.68692 20.8538 4.68692C24.5459 4.68692 27.9548 5.89958 30.7039 7.94834L32.3357 6.26042L32.3538 6.24223C33.1012 5.5018 34.3129 5.5018 35.0603 6.24223C35.8077 6.98266 35.8077 8.18314 35.0603 8.92357L25.6208 18.6869Z" fill="#FFCE00"/>
<path d="M44.8617 28.9979V36.5979C44.8617 36.7084 44.9513 36.7979 45.0617 36.7979H48.6617C48.7722 36.7979 48.8617 36.7084 48.8617 36.5979V28.9979C48.8617 28.8875 48.9513 28.7979 49.0617 28.7979H54.4164C54.5889 28.7979 54.6805 28.594 54.5659 28.465L47.0112 19.9661C46.9317 19.8766 46.7918 19.8766 46.7123 19.9661L39.1576 28.465C39.043 28.594 39.1345 28.7979 39.3071 28.7979H44.6617C44.7722 28.7979 44.8617 28.8875 44.8617 28.9979Z" fill="#FFCE00"/>
</svg>
