<svg width="39" height="32" viewBox="0 0 39 32" fill="none" xmlns="http://www.w3.org/2000/svg">
<path d="M28.6833 24.2V31.8C28.6833 31.9105 28.7728 32 28.8833 32H32.4833C32.5937 32 32.6833 31.9105 32.6833 31.8V24.2C32.6833 24.0895 32.7728 24 32.8833 24H38.2379C38.4105 24 38.5021 23.7961 38.3874 23.6671L30.8328 15.1682C30.7532 15.0787 30.6134 15.0787 30.5338 15.1682L22.9792 23.6671C22.8645 23.7961 22.9561 24 23.1287 24H28.4833C28.5937 24 28.6833 24.0895 28.6833 24.2Z" fill="#FFFDE3"/>
<path d="M0.683289 29.5V24.5C0.683289 24.2239 0.907146 24 1.18329 24H4.18329L7.18329 20.5L3.43588 16.2842C3.27317 16.1011 3.18329 15.8647 3.18329 15.6198V13C3.18329 12.4477 3.631 12 4.18329 12H7.47618C7.86671 12 8.18329 12.3166 8.18329 12.7071C8.18329 12.8946 8.10879 13.0745 7.97618 13.2071L6.68329 14.5L16.6833 25L18.4762 23.2071C18.6088 23.0745 18.7886 23 18.9762 23C19.3667 23 19.6833 23.3166 19.6833 23.7071V27C19.6833 27.5523 19.2356 28 18.6833 28H15.0635C14.8186 28 14.5822 27.9101 14.3991 27.7474L10.1833 24L6.68329 26.5V29.5C6.68329 29.7761 6.45943 30 6.18329 30H1.18329C0.907146 30 0.683289 29.7761 0.683289 29.5Z" fill="#FFFDE3"/>
<path d="M10.1833 15L24.6833 0H31.6833V7L16.1833 21L13.6833 18.5L22.5454 10L25.6833 6L21.5454 9L12.6833 17.5L10.1833 15Z" fill="#FFFDE3"/>
</svg>
