<svg width="38" height="37" viewBox="0 0 38 37" fill="none" xmlns="http://www.w3.org/2000/svg">
<path d="M23.5334 21.4305C23.7287 21.6258 23.7287 21.9424 23.5334 22.1376L22.1192 23.5519C21.9239 23.7471 21.6073 23.7471 21.4121 23.5519L6.83363 8.97341C6.63837 8.77814 6.32179 8.77814 6.12653 8.97341L4.25353 10.8464C3.98206 11.1179 3.51861 10.9948 3.41759 10.6244L0.874494 1.29981C0.772698 0.926557 1.11518 0.584069 1.48843 0.685864L10.8131 3.22894C11.1834 3.32995 11.3065 3.79341 11.0351 4.06487L8.95495 6.14498C8.75969 6.34024 8.75969 6.65682 8.95495 6.85209L23.5334 21.4305Z" fill="#FFCE00"/>
<path d="M9.4113 36.4003C8.66393 37.1407 7.4522 37.1407 6.70483 36.4003C5.95745 35.6599 5.95745 34.4594 6.70483 33.719L8.68541 31.6703C6.46778 28.8608 5.1443 25.3128 5.1443 21.4557C5.1443 18.6665 5.83637 16.0389 7.05816 13.7353C7.35854 13.169 8.11662 13.0848 8.56992 13.5381L10.8951 15.8633C11.1989 16.1671 11.2706 16.6294 11.1039 17.0254C10.5306 18.3879 10.2137 19.8848 10.2137 21.4557C10.2137 23.8799 10.9684 26.1278 12.2556 27.9774L16.1443 23.9556C16.8917 23.2152 18.1034 23.2152 18.8508 23.9556C19.5981 24.6961 19.5981 25.8965 18.8508 26.637L9.4113 36.4003Z" fill="#FFCE00"/>
<path d="M26.4113 18.9556C25.6639 19.6961 24.4522 19.6961 23.7048 18.9556C22.9575 18.2152 22.9575 17.0147 23.7048 16.2743L27.9282 11.9058C26.1252 10.717 23.9655 10.0251 21.6443 10.0251C19.9717 10.0251 18.3829 10.3843 16.9511 11.0299C16.5503 11.2106 16.0747 11.1434 15.7638 10.8325L13.4587 8.52736C13.0106 8.07932 13.0866 7.33128 13.6405 7.02347C16.0109 5.70602 18.74 4.95565 21.6443 4.95565C25.3364 4.95565 28.7453 6.16832 31.4943 8.21707L33.1262 6.52915L33.1443 6.51097C33.8917 5.77054 35.1034 5.77054 35.8508 6.51097C36.5981 7.2514 36.5981 8.45187 35.8508 9.1923L26.4113 18.9556Z" fill="#FFCE00"/>
<path d="M37.8263 30.7467C37.8263 34.2617 35.4133 36.0097 32.4493 36.0097C29.7513 36.0097 27.6233 34.6417 27.0153 32.4757L29.0103 31.8297C29.4093 33.3687 30.8343 34.1477 32.4683 34.1477C34.0643 34.1477 35.7363 33.0837 35.7363 30.7657C35.7363 28.3527 34.0263 27.4217 32.4873 27.4217C31.2713 27.4217 29.8843 28.1817 29.3903 29.3217L27.3573 28.8847L28.0603 20.8477H36.8193V22.7097H29.9413L29.5423 26.9087H29.5803C30.1313 26.1867 31.3093 25.7497 32.8103 25.7497C35.2803 25.7497 37.8263 27.1367 37.8263 30.7467Z" fill="#FFCE00"/>
</svg>
