<svg width="45" height="33" viewBox="0 0 45 33" fill="none" xmlns="http://www.w3.org/2000/svg">
<path d="M33.8013 24.2302V32.7751C33.8013 32.8993 33.8995 33 34.0206 33H37.9664C38.0875 33 38.1856 32.8993 38.1856 32.7751V24.2302C38.1856 24.106 38.2837 24.0054 38.4048 24.0054H44.2738C44.463 24.0054 44.5633 23.7761 44.4377 23.6311L36.1573 14.0755C36.0701 13.9748 35.9168 13.9748 35.8296 14.0755L27.5493 23.6311C27.4236 23.7761 27.524 24.0054 27.7131 24.0054H33.5821C33.7032 24.0054 33.8013 24.106 33.8013 24.2302Z" fill="#FFFDE3"/>
<path d="M8.96008 0.479525L0.743033 5.23676C0.495643 5.37999 0.418472 5.7011 0.573766 5.9411L5.2832 13.2193C5.49966 13.5538 6.00135 13.5131 6.16106 13.1481L9.25505 6.0761C9.2771 6.02571 9.29068 5.97203 9.29525 5.91722L9.70887 0.953761C9.74241 0.55128 9.3096 0.277168 8.96008 0.479525Z" fill="#FFFDE3"/>
<path fill-rule="evenodd" clip-rule="evenodd" d="M40.8337 5.23676L32.6166 0.479525C32.2671 0.277168 31.8343 0.55128 31.8678 0.953761L32.2815 5.91722C32.286 5.97203 32.2996 6.02571 32.3216 6.0761L33.8071 9.47139C35.3263 8.7768 37.1141 8.84982 38.5769 9.69045L41.0029 5.9411C41.1582 5.7011 41.0811 5.37999 40.8337 5.23676ZM31.854 11.0118L23.7562 20.3567C20.9909 23.548 22.9733 29.0054 27.6987 29.0054H28.787V31H32.6869C33.2773 31 33.7391 30.4913 33.6823 29.9037L33.1114 24.0054L33.0873 23.7554L27.5349 23.6311L32.5187 17.8798L31.854 11.0118Z" fill="#FFFDE3"/>
<path fill-rule="evenodd" clip-rule="evenodd" d="M7.89444 29.9037C7.83758 30.4913 8.29945 31 8.88979 31H28.787H32.6869C33.2773 31 33.7391 30.4913 33.6823 29.9037L33.1114 24.0054L33.0873 23.7554L27.5349 23.6311L32.5187 17.8798L31.854 11.0118L30.8758 0.903676C30.8262 0.391096 30.3954 0 29.8805 0H25.6685C25.4236 0 25.1872 0.0898786 25.0042 0.252591L21.4527 3.40945C21.0738 3.74624 20.5029 3.74624 20.124 3.40945L16.5725 0.252591C16.3895 0.0898786 16.1531 0 15.9081 0H11.6962C11.1813 0 10.7505 0.391096 10.7009 0.903676L7.89444 29.9037ZM16.9888 5.2995C17.1617 5.12667 17.4341 5.10413 17.633 5.24619L20.5383 7.32143L23.4437 5.24619C23.6426 5.10413 23.915 5.12667 24.0879 5.2995L24.8571 6.06873C25.0802 6.29184 25.0434 6.66329 24.7809 6.83831L22.6633 8.25L24.7809 9.66169C25.0434 9.83671 25.0802 10.2082 24.8571 10.4313L24.0879 11.2005C23.915 11.3733 23.6426 11.3959 23.4437 11.2538L20.5383 9.17857L17.633 11.2538C17.4341 11.3959 17.1617 11.3733 16.9888 11.2005L16.2196 10.4313C15.9965 10.2082 16.0333 9.83671 16.2958 9.66169L18.4133 8.25L16.2958 6.83831C16.0333 6.66329 15.9965 6.29184 16.2196 6.06873L16.9888 5.2995ZM16.9888 12.2995C17.1617 12.1267 17.4341 12.1041 17.633 12.2462L20.5383 14.3214L23.4437 12.2462C23.6426 12.1041 23.915 12.1267 24.0879 12.2995L24.8571 13.0687C25.0802 13.2918 25.0434 13.6633 24.7809 13.8383L22.6633 15.25L24.7809 16.6617C25.0434 16.8367 25.0802 17.2082 24.8571 17.4313L24.0879 18.2005C23.915 18.3733 23.6426 18.3959 23.4437 18.2538L20.5383 16.1786L17.633 18.2538C17.4341 18.3959 17.1617 18.3733 16.9888 18.2005L16.2196 17.4313C15.9965 17.2082 16.0333 16.8367 16.2958 16.6617L18.4133 15.25L16.2958 13.8383C16.0333 13.6633 15.9965 13.2918 16.2196 13.0687L16.9888 12.2995Z" fill="#FFFDE3"/>
</svg>
