<svg width="43" height="41" viewBox="0 0 43 41" fill="none" xmlns="http://www.w3.org/2000/svg">
<path d="M43 34.25V29.25H36.25V22.5H31.25V29.25H24.5V34.25H31.25V41H36.25V34.25H43Z" fill="#FFFDE3"/>
<path fill-rule="evenodd" clip-rule="evenodd" d="M18.5 37C8.28273 37 0 28.7173 0 18.5C0 8.28273 8.28273 0 18.5 0C28.7173 0 37 8.28273 37 18.5C37 18.8961 36.9876 19.2893 36.963 19.6792C36.6216 19.563 36.2557 19.5 35.875 19.5H31.625C29.761 19.5 28.25 21.011 28.25 22.875V25.75C28.25 26.0261 28.0261 26.25 27.75 26.25H24.875C23.011 26.25 21.5 27.761 21.5 29.625V33.875C21.5 34.9391 21.9924 35.8881 22.7618 36.5067C21.3936 36.8293 19.9667 37 18.5 37ZM18.5 26C22.6421 26 26 22.6421 26 18.5C26 14.3579 22.6421 11 18.5 11C14.3579 11 11 14.3579 11 18.5C11 22.6421 14.3579 26 18.5 26Z" fill="#FFFF00"/>
</svg>
