<svg width="56" height="32" viewBox="0 0 56 32" fill="none" xmlns="http://www.w3.org/2000/svg">
<path d="M27.8108 24.099V31.699C27.8108 31.8094 27.9004 31.899 28.0108 31.899H31.6108C31.7213 31.899 31.8108 31.8094 31.8108 31.699V24.099C31.8108 23.9885 31.9004 23.899 32.0108 23.899H37.3654C37.538 23.899 37.6296 23.6951 37.5149 23.5661L29.9603 15.0671C29.8807 14.9776 29.7409 14.9776 29.6613 15.0671L22.1067 23.5661C21.992 23.6951 22.0836 23.899 22.2562 23.899H27.6108C27.7213 23.899 27.8108 23.9885 27.8108 24.099Z" fill="#FFCE00"/>
<path d="M45.3108 24.099V31.699C45.3108 31.8094 45.4004 31.899 45.5108 31.899H49.1108C49.2213 31.899 49.3108 31.8094 49.3108 31.699V24.099C49.3108 23.9885 49.4004 23.899 49.5108 23.899H54.8654C55.038 23.899 55.1296 23.6951 55.0149 23.5661L47.4603 15.0671C47.3807 14.9776 47.2409 14.9776 47.1613 15.0671L39.6067 23.5661C39.492 23.6951 39.5836 23.899 39.7562 23.899H45.1108C45.2213 23.899 45.3108 23.9885 45.3108 24.099Z" fill="#FFCE00"/>
<path d="M9.55579 15L24.0558 3.8147e-06H31.0558V7L15.5558 21L13.0558 18.5L21.9179 10L25.0558 6L20.9179 9L12.0558 17.5L9.55579 15Z" fill="#FFCE00"/>
<path d="M0.0557861 24.5V29.5C0.0557861 29.7761 0.279644 30 0.555786 30H5.55579C5.83193 30 6.05579 29.7761 6.05579 29.5V26.5L9.55579 24L13.7716 27.7474C13.9547 27.9101 14.1911 28 14.436 28H18.0558C18.6081 28 19.0558 27.5523 19.0558 27V23.7071C19.0558 23.3166 18.7392 23 18.3487 23C18.1611 23 17.9813 23.0745 17.8487 23.2071L16.0558 25L6.05579 14.5L7.34868 13.2071C7.48129 13.0745 7.55579 12.8946 7.55579 12.7071C7.55579 12.3166 7.2392 12 6.84868 12H3.55579C3.0035 12 2.55579 12.4477 2.55579 13V15.6198C2.55579 15.8647 2.64566 16.1011 2.80838 16.2842L6.55579 20.5L3.55579 24H0.555786C0.279644 24 0.0557861 24.2239 0.0557861 24.5Z" fill="#FFCE00"/>
</svg>
