<svg width="38" height="37" viewBox="0 0 38 37" fill="none" xmlns="http://www.w3.org/2000/svg">
<path d="M23.5334 21.1426C23.7287 21.3379 23.7287 21.6544 23.5334 21.8497L22.1192 23.2639C21.9239 23.4592 21.6073 23.4592 21.4121 23.2639L6.83363 8.68547C6.63837 8.49021 6.32179 8.49021 6.12653 8.68547L4.25353 10.5585C3.98206 10.8299 3.51861 10.7069 3.41759 10.3365L0.874494 1.01187C0.772698 0.638624 1.11518 0.296136 1.48843 0.397931L10.8131 2.941C11.1834 3.04202 11.3065 3.50547 11.0351 3.77694L8.95495 5.85704C8.75969 6.05231 8.75969 6.36889 8.95495 6.56415L23.5334 21.1426Z" fill="#FFCE00"/>
<path d="M9.4113 36.1124C8.66393 36.8528 7.4522 36.8528 6.70483 36.1124C5.95745 35.3719 5.95745 34.1715 6.70483 33.431L8.68541 31.3824C6.46778 28.5729 5.1443 25.0248 5.1443 21.1677C5.1443 18.3785 5.83637 15.751 7.05816 13.4474C7.35854 12.8811 8.11662 12.7969 8.56992 13.2502L10.8951 15.5754C11.1989 15.8792 11.2706 16.3415 11.1039 16.7375C10.5306 18.0999 10.2137 19.5968 10.2137 21.1677C10.2137 23.5919 10.9684 25.8399 12.2556 27.6895L16.1443 23.6677C16.8917 22.9273 18.1034 22.9273 18.8508 23.6677C19.5981 24.4081 19.5981 25.6086 18.8508 26.349L9.4113 36.1124Z" fill="#FFCE00"/>
<path d="M26.4113 18.6677C25.6639 19.4081 24.4522 19.4081 23.7048 18.6677C22.9575 17.9273 22.9575 16.7268 23.7048 15.9864L27.9282 11.6179C26.1252 10.429 23.9655 9.73714 21.6443 9.73714C19.9717 9.73714 18.3829 10.0964 16.9511 10.742C16.5503 10.9227 16.0747 10.8555 15.7638 10.5446L13.4587 8.23943C13.0106 7.79139 13.0866 7.04335 13.6405 6.73554C16.0109 5.41809 18.74 4.66772 21.6443 4.66772C25.3364 4.66772 28.7453 5.88038 31.4943 7.92914L33.1262 6.24122L33.1443 6.22303C33.8917 5.4826 35.1034 5.4826 35.8508 6.22303C36.5981 6.96346 36.5981 8.16394 35.8508 8.90437L26.4113 18.6677Z" fill="#FFCE00"/>
<path d="M37.6363 31.2758C37.6363 33.9738 35.8123 35.7218 32.2403 35.7218C29.3143 35.7218 27.4713 34.3348 26.8823 32.1498L28.7823 31.4088C29.1813 33.0048 30.5683 33.8788 32.2023 33.8788C33.9883 33.8788 35.5083 32.8528 35.5083 31.1998C35.5083 29.6228 34.2923 28.5018 32.0883 28.5018C31.7273 28.5018 30.7203 28.5018 30.2453 28.5018V26.6208C30.7013 26.6208 31.4613 26.6208 31.8413 26.6208C33.5893 26.6208 34.9763 25.6518 34.9763 24.2838C34.9763 22.8398 33.8743 22.0228 32.2973 22.0228C30.6443 22.0228 29.5993 22.9918 29.3713 24.2078L27.4523 23.6188C27.8703 21.7948 29.4853 20.2178 32.3733 20.2178C35.2803 20.2178 37.1423 21.6998 37.1423 23.9988C37.1423 25.9178 35.9643 27.1148 34.2923 27.4188C36.0213 27.6848 37.6363 28.9958 37.6363 31.2758Z" fill="#FFCE00"/>
</svg>
