<svg width="43" height="39" viewBox="0 0 43 39" fill="none" xmlns="http://www.w3.org/2000/svg">
<path d="M13.9991 0.682166C14.2542 -0.227391 15.5443 -0.227388 15.7994 0.682169L15.9369 1.17268C17.7371 7.59241 22.5475 12.7367 28.8345 14.9655C29.6263 15.2462 29.6263 16.3654 28.8345 16.6461C22.5475 18.8748 17.7371 24.0191 15.9369 30.4389L15.7994 30.9294C15.5443 31.8389 14.2542 31.8389 13.9991 30.9294L13.8616 30.4389C12.0614 24.0191 7.25096 18.8748 0.963977 16.6461C0.172164 16.3654 0.172164 15.2462 0.963977 14.9655C7.25096 12.7367 12.0614 7.5924 13.8616 1.17268L13.9991 0.682166Z" fill="#FFCE00"/>
<path d="M33.7814 22.507C33.924 22.0298 34.6002 22.0298 34.7429 22.507L34.7796 22.6299C35.8333 26.1558 38.5407 28.9469 42.0342 30.1089C42.4821 30.2579 42.4821 30.8912 42.0342 31.0402C38.5407 32.2022 35.8333 34.9933 34.7796 38.5192L34.7429 38.6421C34.6002 39.1193 33.924 39.1193 33.7814 38.6421L33.7447 38.5192C32.6909 34.9933 29.9836 32.2022 26.4901 31.0402C26.0422 30.8912 26.0422 30.2579 26.4901 30.1089C29.9836 28.9469 32.6909 26.1558 33.7447 22.6299L33.7814 22.507Z" fill="#FFCE00"/>
</svg>
