<svg width="44" height="37" viewBox="0 0 44 37" fill="none" xmlns="http://www.w3.org/2000/svg">
<path d="M32.8079 27.9722V36.5171C32.8079 36.6413 32.906 36.742 33.0271 36.742H36.9729C37.094 36.742 37.1921 36.6413 37.1921 36.5171V27.9722C37.1921 27.848 37.2903 27.7473 37.4113 27.7473H43.2803C43.4695 27.7473 43.5699 27.5181 43.4442 27.3731L35.1638 17.8174C35.0766 17.7168 34.9233 17.7168 34.8361 17.8174L26.5558 27.3731C26.4301 27.5181 26.5305 27.7473 26.7196 27.7473H32.5886C32.7097 27.7473 32.8079 27.848 32.8079 27.9722Z" fill="#97F9FF"/>
<path fill-rule="evenodd" clip-rule="evenodd" d="M18.8131 32.5339C19.5979 33.3378 20.8907 33.3378 21.6754 32.5339L22.8346 31.3465C20.4636 29.2183 19.8654 25.3441 22.3225 22.5799L29.8771 14.0809C32.3434 11.3064 36.6787 11.3064 39.145 14.0809L39.4038 14.3721C40.1285 13.5862 40.1077 12.3635 39.347 11.6027L27.7443 0H12.7443L1.14157 11.6027C0.367169 12.3771 0.359621 13.6303 1.12464 14.414L18.8131 32.5339ZM6.2443 13.5H13.2443L17.7443 25L6.2443 13.5ZM14.2443 12.5L17.2443 4.5H22.2443L25.2443 12.5H14.2443Z" fill="#97F9FF"/>
</svg>
