<svg width="36" height="32" viewBox="0 0 36 32" fill="none" xmlns="http://www.w3.org/2000/svg">
<path d="M31.2088 13H23.5314L18.8701 23.8971H25.9991L22.1604 32H22.983L35.8701 18.8676H28.7411L31.2088 13Z" fill="#E7E810"/>
<path d="M0.870117 24.5833V20.4167C0.870117 20.1865 1.05065 20 1.27334 20H3.6927L6.11205 17.0833L3.08995 13.5701C2.95873 13.4176 2.88625 13.2206 2.88625 13.0165V10.8333C2.88625 10.3731 3.24731 10 3.6927 10H6.34826C6.6632 10 6.9185 10.2638 6.9185 10.5893C6.9185 10.7455 6.85842 10.8954 6.75148 11.0059L5.70883 12.0833L13.7733 20.8333L15.2192 19.3393C15.3262 19.2287 15.4712 19.1667 15.6224 19.1667C15.9374 19.1667 16.1927 19.4305 16.1927 19.7559V22.5C16.1927 22.9602 15.8316 23.3333 15.3862 23.3333H12.4671C12.2695 23.3333 12.0789 23.2584 11.9313 23.1228L8.53141 20L5.70883 22.0833V24.5833C5.70883 24.8134 5.5283 25 5.3056 25H1.27334C1.05065 25 0.870117 24.8134 0.870117 24.5833Z" fill="#E7E810"/>
<path d="M8.53141 12.5L20.225 0H25.8701V5.83333L13.3701 17.5L11.354 15.4167L18.5008 8.33333L21.0314 5L17.6944 7.5L10.5475 14.5833L8.53141 12.5Z" fill="#E7E810"/>
</svg>
