<svg width="63" height="38" viewBox="0 0 63 38" fill="none" xmlns="http://www.w3.org/2000/svg">
<path d="M32.2521 28.7141V37.2591C32.2521 37.3832 32.3502 37.4839 32.4713 37.4839H36.4171C36.5382 37.4839 36.6363 37.3832 36.6363 37.2591V28.7141C36.6363 28.59 36.7345 28.4893 36.8555 28.4893H42.7246C42.9137 28.4893 43.0141 28.26 42.8884 28.115L34.608 18.5594C34.5208 18.4588 34.3676 18.4588 34.2804 18.5594L26 28.115C25.8743 28.26 25.9747 28.4893 26.1638 28.4893H32.0329C32.1539 28.4893 32.2521 28.59 32.2521 28.7141Z" fill="#FFCE00"/>
<path fill-rule="evenodd" clip-rule="evenodd" d="M18.2574 33.2759C19.0421 34.0798 20.3349 34.0798 21.1197 33.2759L22.2788 32.0885C19.9078 29.9602 19.3096 26.0861 21.7667 23.3219L29.3213 14.8229C31.7876 12.0483 36.1229 12.0483 38.5892 14.8229L38.848 15.114C39.5727 14.3282 39.552 13.1054 38.7912 12.3447L27.1885 0.741959H12.1885L0.585786 12.3447C-0.188617 13.1191 -0.196165 14.3723 0.568852 15.156L18.2574 33.2759ZM5.68851 14.242H12.6885L17.1885 25.742L5.68851 14.242ZM13.6885 13.242L16.6885 5.24196H21.6885L24.6885 13.242H13.6885Z" fill="#FFCE00"/>
<path d="M51.3637 28.7141V37.2591C51.3637 37.3832 51.4618 37.4839 51.5829 37.4839H55.5287C55.6498 37.4839 55.7479 37.3832 55.7479 37.2591V28.7141C55.7479 28.59 55.8461 28.4893 55.9671 28.4893H61.8362C62.0253 28.4893 62.1257 28.26 62 28.115L53.7196 18.5594C53.6324 18.4588 53.4792 18.4588 53.392 18.5594L45.1116 28.115C44.9859 28.26 45.0863 28.4893 45.2754 28.4893H51.1445C51.2655 28.4893 51.3637 28.59 51.3637 28.7141Z" fill="#FFCE00"/>
</svg>
