<svg width="27" height="29" viewBox="0 0 27 29" fill="none" xmlns="http://www.w3.org/2000/svg">
<path d="M12.9161 12.2519L18.1013 1.02264C18.2815 0.632393 18.8375 0.636375 19.0121 1.02916L24.2915 12.9063C25.2129 14.9792 26.0404 17.1245 26.147 19.3904C26.3212 23.0926 25.4094 28.5208 18.5639 28.5208C12.1691 28.5208 10.8478 23.7839 10.7768 20.1421C10.7231 17.3818 11.7588 14.7584 12.9161 12.2519Z" fill="#9DF2FF"/>
<path d="M2.46351 4.68711L4.13441 1.02275C4.31367 0.62963 4.87352 0.633605 5.04718 1.02924L6.93796 5.33681C7.8408 7.39365 8.82015 9.56038 8.46129 11.7778C8.19846 13.4019 7.26406 15.006 4.59803 15.006C2.32716 15.006 1.28725 13.8421 0.844551 12.4935C-0.00804138 9.89609 1.32931 7.17446 2.46351 4.68711Z" fill="#9DF2FF"/>
</svg>
