<svg width="38" height="33" viewBox="0 0 38 33" fill="none" xmlns="http://www.w3.org/2000/svg">
<path fill-rule="evenodd" clip-rule="evenodd" d="M14.7437 0.57421L0.277173 31.3157C-0.0349429 31.9789 0.448977 32.7415 1.18199 32.7415H36.0582C36.7842 32.7415 37.2683 31.9922 36.9698 31.3304L26.9712 9.15956C26.6248 8.39148 25.542 8.36983 25.1652 9.12346L23.5459 12.3622C23.363 12.7279 22.8424 12.7314 22.6545 12.3683L16.5368 0.54058C16.1561 -0.195494 15.0966 -0.175621 14.7437 0.57421ZM11.9187 17.5384C11.7717 17.869 12.0138 18.2415 12.3756 18.2415H19.2972C19.6689 18.2415 19.9106 17.8503 19.7444 17.5179L16.08 10.1891C15.8911 9.81116 15.3475 9.82351 15.1759 10.2096L11.9187 17.5384ZM26.5341 19.2195C26.3642 18.8311 25.8184 18.8171 25.6288 19.1963L22.468 25.5179C22.3018 25.8503 22.5435 26.2415 22.9152 26.2415H28.8417C29.2023 26.2415 29.4443 25.8714 29.2998 25.5411L26.5341 19.2195Z" fill="#86CC00"/>
</svg>
