<svg width="37" height="31" viewBox="0 0 37 31" fill="none" xmlns="http://www.w3.org/2000/svg">
<path fill-rule="evenodd" clip-rule="evenodd" d="M2.86887 15.0846C-0.462801 11.7529 -0.462801 6.35118 2.86887 3.0195C6.20054 -0.312166 11.6022 -0.312166 14.9339 3.0195L18.3806 6.20827L21.8063 3.0195C25.138 -0.312166 30.5397 -0.312166 33.8714 3.0195C37.203 6.35118 37.203 11.7529 33.8714 15.0846L18.3806 30.8542L2.86887 15.0846ZM6.35909 6.50973C4.69326 8.17556 4.69326 10.8764 6.35909 12.5423L18.3806 24.2187L30.4021 12.5423C32.0679 10.8764 32.0679 8.17556 30.4021 6.50973C28.7363 4.84389 26.0354 4.84389 24.3696 6.50973L18.3806 12.8437L12.3916 6.50973C10.7258 4.84389 8.02493 4.84389 6.35909 6.50973Z" fill="#00CEBD"/>
</svg>
