<svg width="32" height="40" viewBox="0 0 32 40" fill="none" xmlns="http://www.w3.org/2000/svg">
<path d="M31.8701 24.2302C31.8701 32.7906 24.9305 39.7302 16.3701 39.7302C7.8097 39.7302 0.870117 32.7906 0.870117 24.2302C0.870117 21.3928 1.63253 18.7334 2.96368 16.4458C3.71594 15.1531 4.64982 13.979 5.73037 12.9587C7.45504 11.3301 9.43498 9.97453 11.1123 8.29722L12.8125 6.59706C13.8846 5.52496 14.8701 4.24638 14.8701 2.7302C14.8701 1.74696 14.6336 0.818963 14.2144 0C16.4464 1.83401 17.8701 4.61584 17.8701 7.7302C17.8701 8.09041 17.8511 8.44618 17.8139 8.79655C17.7684 9.22637 17.6956 9.64805 17.5973 10.0599C17.0362 12.4115 14.6584 13.8213 13.5432 15.9664C13.1131 16.7935 12.8701 17.7335 12.8701 18.7302C12.8701 22.0439 15.5564 24.7302 18.8701 24.7302C22.1838 24.7302 24.8701 22.0439 24.8701 18.7302C24.8701 18.2514 24.814 17.7858 24.7081 17.3394C24.4267 16.1537 23.1991 15.503 22.4681 14.5278C22.2633 14.2546 22.1041 13.9453 22.0016 13.6112C21.9161 13.3326 21.8701 13.0368 21.8701 12.7302C21.8701 11.7191 22.3703 10.8248 23.1368 10.2813C23.8984 9.81945 24.553 9.94137 24.8701 10C25.2747 10.0748 25.2402 10.2363 25.3701 11C25.6104 12.4131 25.899 12.9985 26.8947 13.9441C28.7357 15.6925 30.6895 17.7634 31.3453 20.2162C31.6876 21.4965 31.8701 22.842 31.8701 24.2302Z" fill="#FF3F3F"/>
</svg>
