<svg width="38" height="37" viewBox="0 0 38 37" fill="none" xmlns="http://www.w3.org/2000/svg">
<path d="M23.5334 20.8547C23.7287 21.0499 23.7287 21.3665 23.5334 21.5618L22.1192 22.976C21.9239 23.1712 21.6073 23.1712 21.4121 22.976L6.83363 8.39752C6.63837 8.20226 6.32179 8.20226 6.12653 8.39752L4.25353 10.2705C3.98206 10.542 3.51861 10.4189 3.41759 10.0485L0.874494 0.723925C0.772698 0.350675 1.11518 0.00818719 1.48843 0.109982L10.8131 2.65306C11.1834 2.75407 11.3065 3.21752 11.0351 3.48899L8.95495 5.5691C8.75969 5.76436 8.75969 6.08094 8.95495 6.2762L23.5334 20.8547Z" fill="#FFCE00"/>
<path d="M9.4113 35.8244C8.66393 36.5649 7.4522 36.5649 6.70483 35.8244C5.95745 35.084 5.95745 33.8835 6.70483 33.1431L8.68541 31.0944C6.46778 28.2849 5.1443 24.7369 5.1443 20.8798C5.1443 18.0906 5.83637 15.463 7.05816 13.1595C7.35854 12.5931 8.11662 12.5089 8.56992 12.9622L10.8951 15.2874C11.1989 15.5913 11.2706 16.0535 11.1039 16.4496C10.5306 17.812 10.2137 19.3089 10.2137 20.8798C10.2137 23.304 10.9684 25.552 12.2556 27.4016L16.1443 23.3798C16.8917 22.6393 18.1034 22.6393 18.8508 23.3798C19.5981 24.1202 19.5981 25.3207 18.8508 26.0611L9.4113 35.8244Z" fill="#FFCE00"/>
<path d="M26.4113 18.3798C25.6639 19.1202 24.4522 19.1202 23.7048 18.3798C22.9575 17.6393 22.9575 16.4389 23.7048 15.6984L27.9282 11.3299C26.1252 10.1411 23.9655 9.44919 21.6443 9.44919C19.9717 9.44919 18.3829 9.80845 16.9511 10.454C16.5503 10.6347 16.0747 10.5675 15.7638 10.2566L13.4587 7.95148C13.0106 7.50344 13.0866 6.7554 13.6405 6.44759C16.0109 5.13014 18.74 4.37977 21.6443 4.37977C25.3364 4.37977 28.7453 5.59243 31.4943 7.64119L33.1262 5.95327L33.1443 5.93508C33.8917 5.19465 35.1034 5.19465 35.8508 5.93508C36.5981 6.67552 36.5981 7.87599 35.8508 8.61642L26.4113 18.3798Z" fill="#FFCE00"/>
<path d="M37.6743 35.0918H27.4523L27.4713 34.0848C27.5853 31.2538 29.4663 28.9168 32.0313 27.6818C34.4443 26.5418 35.3563 25.4398 35.3563 24.1668C35.3563 22.7418 34.3303 21.7918 32.4873 21.7918C30.9293 21.7918 29.6563 23.0078 29.5803 24.9458L27.5853 24.4708C27.7183 21.6778 29.8843 19.9298 32.6013 19.9298C35.7743 19.9298 37.5793 21.6778 37.5793 24.0718C37.5793 26.1618 36.3633 27.6818 33.3043 29.0878C31.3473 29.9808 29.9223 31.5388 29.8463 33.1728H37.6743V35.0918Z" fill="#FFCE00"/>
</svg>
