<svg width="35" height="33" viewBox="0 0 35 33" fill="none" xmlns="http://www.w3.org/2000/svg">
<path d="M25.9395 17.3275L9.75347 0.898964H1.93951V8.56563L19.2418 23.899L22.0325 21.1609L12.14 11.8513L8.63719 7.47039L13.2563 10.7561L23.1488 20.0656L25.9395 17.3275Z" fill="#FFFDE3"/>
<path d="M20.8537 27.4848C21.6348 28.2658 21.6348 29.5321 20.8537 30.3132C20.0727 31.0942 18.8063 31.0942 18.0253 30.3132C17.2443 29.5321 17.2443 28.2658 18.0253 27.4848C18.8063 26.7037 20.0727 26.7037 20.8537 27.4848Z" fill="#FFFDE3"/>
<path d="M31.8537 16.4848C32.6348 17.2658 32.6348 18.5321 31.8537 19.3132C31.0727 20.0942 29.8064 20.0942 29.0253 19.3132C28.2443 18.5321 28.2443 17.2658 29.0253 16.4848C29.8064 15.7037 31.0727 15.7037 31.8537 16.4848Z" fill="#FFFDE3"/>
<path d="M20.8537 27.4848C21.6348 28.2658 21.6348 29.5321 20.8537 30.3132L31.8537 19.3132C31.0727 20.0942 29.8064 20.0942 29.0253 19.3132C28.2443 18.5321 28.2443 17.2658 29.0253 16.4848L18.0253 27.4848C18.8063 26.7037 20.0727 26.7037 20.8537 27.4848Z" fill="#FFFDE3"/>
<path d="M24.2 25.695C23.4189 24.9139 23.4189 23.6476 24.2 22.8666L24.9071 22.1594C25.6881 21.3784 26.9545 21.3784 27.7355 22.1594L33.5964 28.0203C34.3774 28.8013 34.3774 30.0677 33.5964 30.8487L32.8892 31.5558C32.1082 32.3369 30.8419 32.3369 30.0608 31.5558L24.2 25.695Z" fill="#FFFDE3"/>
<path d="M3.26793 16.4848C2.48688 17.2658 2.48688 18.5321 3.26793 19.3132C4.04898 20.0942 5.3153 20.0942 6.09635 19.3132C6.8774 18.5321 6.8774 17.2658 6.09635 16.4848C5.3153 15.7037 4.04898 15.7037 3.26793 16.4848Z" fill="#FFFDE3"/>
<path d="M10.9217 25.695C11.7027 24.9139 11.7027 23.6476 10.9217 22.8666L10.2146 22.1594C9.43352 21.3784 8.16719 21.3784 7.38614 22.1594L6.75017 22.7954L1.5253 28.0203C0.744252 28.8013 0.744252 30.0677 1.5253 30.8487L2.23241 31.5558C3.01346 32.3369 4.27979 32.3369 5.06084 31.5558L10.2857 26.331L10.9217 25.695Z" fill="#FFFDE3"/>
<path d="M14.2679 30.3132C13.4869 29.5321 13.4869 28.2658 14.2679 27.4848C14.985 26.7677 16.111 26.7089 16.8951 27.3085L16.9047 27.2931L6.09635 16.4848C6.8774 17.2658 6.8774 18.5321 6.09635 19.3132C5.3153 20.0942 4.04898 20.0942 3.26793 19.3132L6.75017 22.7954L7.38614 22.1594C8.16719 21.3784 9.43352 21.3784 10.2146 22.1594L10.9217 22.8666C11.7027 23.6476 11.7027 24.9139 10.9217 25.695L10.2857 26.331L14.2679 30.3132Z" fill="#FFFDE3"/>
<path d="M14.2679 27.4848C13.4869 28.2658 13.4869 29.5321 14.2679 30.3132C14.985 31.0302 16.111 31.089 16.8951 30.4895C16.2877 29.5197 16.2877 28.2782 16.8951 27.3085C16.111 26.7089 14.985 26.7677 14.2679 27.4848Z" fill="#FFFDE3"/>
<path d="M25.3682 0.898964H33.1821V8.56563L27.4395 13.399L20.4395 6.39896L25.3682 0.898964Z" fill="#FFFDE3"/>
</svg>
