<svg width="36" height="29" viewBox="0 0 36 29" fill="none" xmlns="http://www.w3.org/2000/svg">
<path fill-rule="evenodd" clip-rule="evenodd" d="M2.43539 13.1197C2.28446 12.9815 2.13919 12.8371 2 12.6871L2.43539 13.1197Z" fill="black" fill-opacity="0.5"/>
<path d="M36 7.58798C36 3.44585 32.6421 0.0879822 28.5 0.0879822C26.2787 0.0879822 24.283 1.05361 22.9097 2.58798L18.7071 6.79061C18.5118 6.98587 18.2559 7.0835 18 7.0835V28.176C18.2552 28.1754 18.5102 28.0777 18.7049 27.8831L32.9978 13.5902C34.8207 12.222 36 10.0427 36 7.58798Z" fill="black" fill-opacity="0.5"/>
<path d="M7.5 15.088C11.6421 15.088 15 11.7301 15 7.58798C15 5.6671 14.2779 3.91487 13.0903 2.58798C11.717 1.05361 9.72125 0.0879822 7.5 0.0879822C3.35786 0.0879822 0 3.44585 0 7.58798C0 9.55706 0.758825 11.3489 2 12.6871L2.43539 13.1197C3.76976 14.3421 5.54777 15.088 7.5 15.088Z" fill="#FF6637"/>
<path d="M15 7.58798C15 11.7301 11.6421 15.088 7.5 15.088C5.54777 15.088 3.76976 14.3421 2.43539 13.1197L17.2929 27.8853C17.4885 28.0797 17.7444 28.1765 18 28.176V7.0835C17.7441 7.0835 17.4882 6.98587 17.2929 6.79061L13.0903 2.58798C14.2779 3.91487 15 5.6671 15 7.58798Z" fill="#FF6637"/>
</svg>
