<svg width="36" height="29" viewBox="0 0 36 29" fill="none" xmlns="http://www.w3.org/2000/svg">
<path d="M15 7.5C15 11.6421 11.6421 15 7.5 15C5.54777 15 3.76976 14.2541 2.43539 13.0318C2.28446 12.8935 2.13919 12.7491 2 12.5991C0.758825 11.2609 0 9.46908 0 7.5C0 3.35786 3.35786 0 7.5 0C9.72125 0 11.717 0.965627 13.0903 2.5C14.2779 3.82689 15 5.57911 15 7.5Z" fill="#FF6637"/>
<path d="M36 7.5C36 9.95471 34.8207 12.134 32.9978 13.5022C31.7447 14.4427 30.1874 15 28.5 15C24.3579 15 21 11.6421 21 7.5C21 5.57911 21.7221 3.82689 22.9097 2.5C24.283 0.965627 26.2787 0 28.5 0C32.6421 0 36 3.35786 36 7.5Z" fill="#FF6637"/>
<path d="M15 7.5C15 11.6421 11.6421 15 7.5 15C5.54777 15 3.76976 14.2541 2.43539 13.0318L17.2929 27.7973C17.6838 28.1857 18.3152 28.1848 18.7049 27.7951L32.9978 13.5022C31.7447 14.4427 30.1874 15 28.5 15C24.3579 15 21 11.6421 21 7.5C21 5.57911 21.7221 3.82689 22.9097 2.5L18.7071 6.70263C18.3166 7.09315 17.6834 7.09315 17.2929 6.70263L13.0903 2.5C14.2779 3.82689 15 5.57911 15 7.5Z" fill="#FF6637"/>
</svg>
