<svg width="36" height="29" viewBox="0 0 36 29" fill="none" xmlns="http://www.w3.org/2000/svg">
<path fill-rule="evenodd" clip-rule="evenodd" d="M2.43539 13.2077C2.28446 13.0695 2.13919 12.9251 2 12.775L2.43539 13.2077Z" fill="#FF6637"/>
<path d="M36 7.67596C36 3.53383 32.6421 0.175964 28.5 0.175964C26.2787 0.175964 24.283 1.14159 22.9097 2.67596L18.7071 6.87859C18.5118 7.07385 18.2559 7.17148 18 7.17148V7.19796V14.22V28.2639C18.2552 28.2634 18.5102 28.1657 18.7049 27.9711L32.9978 13.6782C34.8207 12.31 36 10.1307 36 7.67596Z" fill="black"/>
<path fill-rule="evenodd" clip-rule="evenodd" d="M11.1669 14.22C13.4544 12.9354 15 10.4862 15 7.67596C15 5.75508 14.2779 4.00286 13.0903 2.67596L17.2929 6.87859C17.4882 7.07385 17.7441 7.17148 18 7.17148V7.19796V14.22H11.1669ZM3.83308 14.22C3.32816 13.9364 2.85938 13.5961 2.43539 13.2077L3.45392 14.22H3.83308Z" fill="#FF6637"/>
<path fill-rule="evenodd" clip-rule="evenodd" d="M3.83308 14.22H11.1669C13.4544 12.9354 15 10.4862 15 7.67596C15 5.75508 14.2779 4.00286 13.0903 2.67596C11.717 1.14159 9.72125 0.175964 7.5 0.175964C3.35786 0.175964 0 3.53383 0 7.67596C0 9.64505 0.758825 11.4369 2 12.775L2.43539 13.2077C2.85938 13.5961 3.32816 13.9364 3.83308 14.22Z" fill="#FF6637"/>
<path d="M17.2929 27.9732C17.4885 28.1676 17.7444 28.2645 18 28.2639V14.22H11.1669H3.83308H3.45392L17.2929 27.9732Z" fill="black"/>
</svg>
