<svg width="39" height="30" viewBox="0 0 39 30" fill="none" xmlns="http://www.w3.org/2000/svg">
<path fill-rule="evenodd" clip-rule="evenodd" d="M19.4109 4C11.1266 4 4.41089 6.68629 4.41089 10V20C4.41089 23.3137 11.1266 26 19.4109 26C27.6952 26 34.4109 23.3137 34.4109 20V10C34.4109 6.68629 27.6952 4 19.4109 4ZM19.4109 13C25.486 13 29.9109 11.6569 29.9109 10C29.9109 8.34315 25.486 7 19.4109 7C13.3358 7 8.91089 8.34315 8.91089 10C8.91089 11.6569 13.3358 13 19.4109 13Z" fill="#9E843A"/>
<path fill-rule="evenodd" clip-rule="evenodd" d="M8.92162 10.1409C8.91449 10.0942 8.91089 10.0472 8.91089 10C8.91089 8.34315 13.3358 7 19.4109 7C25.486 7 29.9109 8.34315 29.9109 10C29.9109 10.0472 29.9073 10.0942 29.9002 10.1409C29.6572 11.7324 25.3128 13 19.4109 13C13.509 13 9.16458 11.7324 8.92162 10.1409ZM5.39036 7.86285C4.75749 8.52676 4.41089 9.24719 4.41089 10V20C4.41089 23.3137 11.1266 26 19.4109 26C27.6952 26 34.4109 23.3137 34.4109 20V10C34.4109 9.24719 34.0643 8.52676 33.4314 7.86285C31.2786 5.60439 25.8131 4 19.4109 4C13.0086 4 7.54321 5.60439 5.39036 7.86285ZM7.31872 2.04345C10.6132 0.725668 14.8901 0 19.4109 0C23.9316 0 28.2086 0.725668 31.5031 2.04345C33.1392 2.69791 34.7317 3.57724 35.9805 4.75831C37.2379 5.94736 38.4109 7.71731 38.4109 10V20C38.4109 22.2827 37.2379 24.0526 35.9805 25.2417C34.7317 26.4228 33.1392 27.3021 31.5031 27.9565C28.2086 29.2743 23.9316 30 19.4109 30C14.8901 30 10.6132 29.2743 7.31872 27.9565C5.68259 27.3021 4.0901 26.4228 2.84123 25.2417C1.58391 24.0526 0.410889 22.2827 0.410889 20V10C0.410889 7.71731 1.58391 5.94736 2.84123 4.75831C4.0901 3.57724 5.68259 2.69791 7.31872 2.04345Z" fill="black"/>
</svg>
