<svg width="35" height="36" viewBox="0 0 35 36" fill="none" xmlns="http://www.w3.org/2000/svg">
<path d="M30.4109 32V17C30.4109 12.6667 27.8109 4 17.4109 4C7.01089 4 4.41089 12.6667 4.41089 17V32H11.4109V21C11.4109 19.1667 12.6109 15.5 17.4109 15.5C22.2109 15.5 23.4109 19.1667 23.4109 21V32H30.4109Z" fill="#9E843A"/>
<path fill-rule="evenodd" clip-rule="evenodd" d="M4.41089 36C2.20175 36 0.410889 34.2091 0.410889 32V17C0.410889 14.1932 1.22001 10.0721 3.76475 6.53778C6.45634 2.79946 10.9072 0 17.4109 0C23.9146 0 28.3654 2.79946 31.057 6.53778C33.6018 10.0721 34.4109 14.1932 34.4109 17V32C34.4109 34.2091 32.62 36 30.4109 36H23.4109C21.2017 36 19.4109 34.2091 19.4109 32V21C19.4109 20.9494 19.3982 20.7776 19.3296 20.5575C19.2637 20.3462 19.1705 20.1673 19.0652 20.0333C18.971 19.9133 18.8511 19.8064 18.6634 19.7176C18.4726 19.6274 18.0922 19.5 17.4109 19.5C16.7295 19.5 16.3492 19.6274 16.1584 19.7176C15.9707 19.8064 15.8508 19.9133 15.7566 20.0333C15.6513 20.1673 15.558 20.3462 15.4922 20.5575C15.4236 20.7776 15.4109 20.9494 15.4109 21V32C15.4109 34.2091 13.62 36 11.4109 36H4.41089ZM30.4109 17C30.4109 12.6667 27.8109 4 17.4109 4C7.01089 4 4.41089 12.6667 4.41089 17V32H11.4109V21C11.4109 19.1667 12.6109 15.5 17.4109 15.5C22.2109 15.5 23.4109 19.1667 23.4109 21V32H30.4109V17Z" fill="black"/>
<path d="M23.4109 36C21.2017 36 19.4109 34.2091 19.4109 32V21C19.4109 20.9494 19.3982 20.7776 19.3296 20.5575C19.2637 20.3462 19.1705 20.1673 19.0652 20.0333C18.971 19.9133 18.8511 19.8064 18.6634 19.7176C18.4726 19.6274 18.0922 19.5 17.4109 19.5C16.7295 19.5 16.3492 19.6274 16.1584 19.7176C15.9707 19.8064 15.8508 19.9133 15.7566 20.0333C15.6513 20.1673 15.558 20.3462 15.4922 20.5575C15.4236 20.7776 15.4109 20.9494 15.4109 21V32C15.4109 34.2091 13.62 36 11.4109 36H23.4109Z" fill="black"/>
</svg>
