<svg width="49" height="49" viewBox="0 0 49 49" fill="none" xmlns="http://www.w3.org/2000/svg">
<path fill-rule="evenodd" clip-rule="evenodd" d="M26.901 4.40579L28.1197 10.4994C28.1739 10.7702 28.4373 10.9458 28.708 10.8916L37.1756 9.19811C37.5905 9.11513 37.9145 9.55291 37.7139 9.92545L34.9669 15.0271C34.8313 15.2788 34.934 15.5927 35.1921 15.7156L44.2549 20.0312C44.6375 20.2134 44.6342 20.759 44.2495 20.9366L39.1763 23.278C38.9238 23.3946 38.8149 23.6948 38.9339 23.9461L42.8196 32.1491C42.9902 32.5093 42.6915 32.9145 42.297 32.8581L36.6943 32.0578C36.4282 32.0197 36.1797 32.1989 36.1316 32.4633L35.3705 36.6497L34.4226 41.863C34.3445 42.2923 33.7925 42.4227 33.5307 42.0736L30.0637 37.4509C29.8811 37.2075 29.5253 37.1822 29.3101 37.3973L21.9332 44.7742C21.6403 45.0671 21.1388 44.8973 21.084 44.4868L20.2909 38.5382C20.2518 38.2446 19.9675 38.0493 19.6795 38.1178L10.7598 40.2416C10.3468 40.3399 10.007 39.9113 10.1968 39.5316L12.9988 33.9277C13.1204 33.6843 13.0252 33.3883 12.7844 33.2616L4.54887 28.9271C4.1946 28.7406 4.1922 28.2342 4.54469 28.0444L9.76373 25.2342C10.0122 25.1004 10.1008 24.7876 9.95939 24.5434L5.27232 16.4476C5.05668 16.0751 5.38107 15.6223 5.80309 15.7067L11.6721 16.8806C11.9636 16.9388 12.2412 16.7315 12.2681 16.4355L13.1211 7.05282C13.1595 6.63064 13.6729 6.44477 13.9726 6.74453L18.3642 11.1361C18.5595 11.3314 18.876 11.3314 19.0713 11.1361L26.0571 4.1503C26.3395 3.86792 26.8227 4.0142 26.901 4.40579ZM26.4599 17.8818L25.1825 14.6614C25.0156 14.2405 24.4199 14.2405 24.253 14.6614L22.9756 17.8818C22.86 18.1731 22.5079 18.2875 22.2432 18.1197L19.3168 16.2652C18.9344 16.0229 18.4525 16.373 18.5648 16.8116L19.4243 20.1678C19.502 20.4714 19.2844 20.7709 18.9716 20.7908L15.5141 21.0105C15.0623 21.0393 14.8782 21.6058 15.2269 21.8946L17.8949 24.1046C18.1363 24.3046 18.1363 24.6748 17.8949 24.8747L15.2269 27.0848C14.8782 27.3736 15.0623 27.9401 15.5141 27.9688L18.9716 28.1885C19.2844 28.2084 19.502 28.5079 19.4243 28.8116L18.5648 32.1677C18.4525 32.6063 18.9344 32.9565 19.3168 32.7141L22.2432 30.8596C22.5079 30.6918 22.86 30.8062 22.9756 31.0976L24.253 34.318C24.4199 34.7388 25.0156 34.7388 25.1825 34.318L26.4599 31.0976C26.5755 30.8062 26.9276 30.6918 27.1923 30.8596L30.1187 32.7141C30.5011 32.9565 30.983 32.6063 30.8707 32.1677L30.0112 28.8116C29.9335 28.5079 30.1511 28.2084 30.4639 28.1885L33.9214 27.9688C34.3732 27.9401 34.5573 27.3736 34.2086 27.0848L31.5406 24.8747C31.2992 24.6748 31.2992 24.3046 31.5406 24.1046L34.2086 21.8946C34.5573 21.6058 34.3732 21.0393 33.9214 21.0105L30.4639 20.7908C30.1511 20.7709 29.9335 20.4714 30.0112 20.1678L30.8707 16.8116C30.983 16.373 30.5011 16.0229 30.1187 16.2652L27.1923 18.1197C26.9276 18.2875 26.5755 18.1731 26.4599 17.8818Z" fill="#9E843A"/>
<path d="M25.1825 14.6614L26.4599 17.8818C26.5755 18.1731 26.9276 18.2875 27.1923 18.1197L30.1187 16.2652C30.5011 16.0229 30.983 16.373 30.8707 16.8116L30.0112 20.1678C29.9335 20.4714 30.1511 20.7709 30.4639 20.7908L33.9214 21.0105C34.3732 21.0393 34.5573 21.6058 34.2086 21.8946L31.5406 24.1046C31.2992 24.3046 31.2992 24.6748 31.5406 24.8747L34.2086 27.0848C34.5573 27.3736 34.3732 27.9401 33.9214 27.9688L30.4639 28.1885C30.1511 28.2084 29.9335 28.5079 30.0112 28.8116L30.8707 32.1677C30.983 32.6063 30.5011 32.9565 30.1187 32.7141L27.1923 30.8596C26.9276 30.6918 26.5755 30.8062 26.4599 31.0976L25.1825 34.318C25.0156 34.7388 24.4199 34.7388 24.253 34.318L22.9756 31.0976C22.86 30.8062 22.5079 30.6918 22.2432 30.8596L19.3168 32.7141C18.9344 32.9565 18.4525 32.6063 18.5648 32.1677L19.4243 28.8116C19.502 28.5079 19.2844 28.2084 18.9716 28.1885L15.5141 27.9688C15.0623 27.9401 14.8782 27.3736 15.2269 27.0848L17.8949 24.8747C18.1363 24.6748 18.1363 24.3046 17.8949 24.1046L15.2269 21.8946C14.8782 21.6058 15.0623 21.0393 15.5141 21.0105L18.9716 20.7908C19.2844 20.7709 19.502 20.4714 19.4243 20.1678L18.5648 16.8116C18.4525 16.373 18.9344 16.0229 19.3168 16.2652L22.2432 18.1197C22.5079 18.2875 22.86 18.1731 22.9756 17.8818L24.253 14.6614C24.4199 14.2405 25.0156 14.2405 25.1825 14.6614Z" fill="black"/>
<path fill-rule="evenodd" clip-rule="evenodd" d="M38.3581 42.5786L39.4644 36.4941L41.7313 36.8179C45.2818 37.3252 47.9699 33.6781 46.4346 30.4368L44.0622 25.4285L45.9257 24.5684C49.3883 22.9703 49.4178 18.0593 45.9746 16.4197L40.2324 13.6853L41.2358 11.8219C43.0412 8.46893 40.1253 4.52896 36.3911 5.27579L31.3556 6.28289L30.8233 3.62133C30.1184 0.0970242 25.7702 -1.21958 23.2287 1.32187L18.7178 5.83282L16.801 3.9161C14.1032 1.21829 9.48295 2.89109 9.13754 6.69067L8.6372 12.1944L6.58755 11.7844C2.78944 11.0248 -0.130089 15.0996 1.81061 18.4517L4.6891 23.4236L2.64829 24.5225C-0.524118 26.2307 -0.502499 30.7887 2.68588 32.4668L7.88808 35.2048L6.61911 37.7427C4.91036 41.1602 7.96939 45.0178 11.6863 44.1328L16.8379 42.9062L17.1191 45.0154C17.6118 48.7103 22.1258 50.2385 24.7616 47.6027L29.285 43.0793L30.3307 44.4736C32.687 47.6153 37.6556 46.4425 38.3581 42.5786ZM28.1197 10.4994L26.901 4.40579C26.8227 4.0142 26.3395 3.86792 26.0571 4.1503L19.0713 11.1361C18.876 11.3314 18.5595 11.3314 18.3642 11.1361L13.9726 6.74453C13.6729 6.44477 13.1595 6.63064 13.1211 7.05282L12.2681 16.4355C12.2412 16.7315 11.9636 16.9388 11.6721 16.8806L5.80309 15.7067C5.38107 15.6223 5.05668 16.0751 5.27232 16.4476L9.95939 24.5434C10.1008 24.7876 10.0122 25.1004 9.76373 25.2342L4.54469 28.0444C4.1922 28.2342 4.1946 28.7406 4.54887 28.9271L12.7844 33.2616C13.0252 33.3883 13.1204 33.6843 12.9988 33.9277L10.1968 39.5316C10.007 39.9113 10.3468 40.3399 10.7598 40.2416L19.6795 38.1178C19.9675 38.0493 20.2518 38.2446 20.2909 38.5382L21.084 44.4868C21.1388 44.8973 21.6403 45.0671 21.9332 44.7742L29.3101 37.3973C29.5253 37.1822 29.8811 37.2075 30.0637 37.4509L33.5307 42.0736C33.7925 42.4227 34.3445 42.2923 34.4226 41.863L35.3705 36.6497L36.1316 32.4633C36.1797 32.1989 36.4282 32.0197 36.6943 32.0578L42.297 32.8581C42.6915 32.9145 42.9902 32.5093 42.8196 32.1491L38.9339 23.9461C38.8149 23.6948 38.9238 23.3946 39.1763 23.278L44.2495 20.9366C44.6342 20.759 44.6375 20.2134 44.2549 20.0312L35.1921 15.7156C34.934 15.5927 34.8313 15.2788 34.9669 15.0271L37.7139 9.92545C37.9145 9.55291 37.5905 9.11513 37.1756 9.19811L28.708 10.8916C28.4373 10.9458 28.1739 10.7702 28.1197 10.4994Z" fill="black"/>
</svg>
