<svg width="49" height="47" viewBox="0 0 49 47" fill="none" xmlns="http://www.w3.org/2000/svg">
<path fill-rule="evenodd" clip-rule="evenodd" d="M13.257 12.1719C8.32774 16.6562 4 20.5933 4 27.8719C4 39.1434 16.4541 42.4017 25.824 42.4017C35.1939 42.4017 44.8217 38.8793 44.8217 28.3122C44.8217 23.0035 39.7576 19.949 34.2789 16.6445C29.4541 13.7344 24.3079 10.6305 22.0158 5.62226C21.6659 4.85776 20.5573 4.6679 20.0274 5.32072C17.8815 7.96482 15.5066 10.1253 13.257 12.1719ZM15.6404 14.8464C12.7504 17.4794 10 19.9852 10 22.9242C10 27.4359 15 29.9242 20.5 29.9242C26 29.9242 32.5 26.9242 29.5 22.9242C28.2866 21.3064 26.5925 20.7502 24.9593 20.214C22.1363 19.2872 19.4954 18.4201 19.8335 12.2337C19.8612 11.727 19.1667 11.4229 18.8201 11.7934C17.833 12.8489 16.7268 13.8567 15.6404 14.8464Z" fill="#C8B56D"/>
<path fill-rule="evenodd" clip-rule="evenodd" d="M7.20074 18.3893C5.26265 20.9838 4 23.9404 4 27.8719C4 39.1434 16.4541 42.4017 25.824 42.4017C35.1939 42.4017 44.8217 38.8793 44.8217 28.3122C44.8217 23.0035 39.7576 19.949 34.2789 16.6445C29.4541 13.7344 24.3079 10.6305 22.0158 5.62226C21.6659 4.85776 20.5573 4.6679 20.0274 5.32072C19.3027 6.21368 18.5519 7.05148 17.7886 7.84837C17.2802 8.37914 16.7662 8.89176 16.2508 9.39043C15.2487 10.36 14.2409 11.2768 13.257 12.1719C13.2473 12.1807 13.2376 12.1895 13.2279 12.1984C10.9719 14.2507 8.84365 16.1899 7.20074 18.3893ZM19.5693 11.7399C19.3427 11.5907 19.0223 11.5773 18.8201 11.7934C18.7055 11.916 18.5893 12.0379 18.4717 12.1592C17.8176 12.8338 17.1207 13.49 16.4183 14.1357C16.2309 14.3079 16.0431 14.4794 15.8556 14.6503C15.7929 14.7075 15.7303 14.7646 15.6677 14.8217C15.6586 14.8299 15.6495 14.8382 15.6404 14.8464C13.5604 16.7415 11.5527 18.5707 10.5907 20.5429C10.216 21.3108 10 22.1005 10 22.9242C10 27.4359 15 29.9242 20.5 29.9242C26 29.9242 32.5 26.9242 29.5 22.9242C28.2866 21.3064 26.5925 20.7502 24.9593 20.214C22.8847 19.5329 20.9084 18.884 20.1406 16.1324C20.0883 15.9449 20.0416 15.7478 20.0008 15.5402C19.8477 14.7599 19.7788 13.8324 19.8126 12.7217C19.8175 12.5628 19.8244 12.4001 19.8335 12.2337C19.8451 12.0225 19.7311 11.8465 19.5693 11.7399ZM16.9917 19.0393C17.319 19.6839 17.7207 20.2834 18.205 20.8351C19.9156 22.7838 22.2255 23.5325 23.4987 23.9451C23.5733 23.9693 23.6444 23.9923 23.7116 24.0144C24.6925 24.3365 25.2731 24.5582 25.6569 24.7743C24.4523 25.4139 22.4717 25.9242 20.5 25.9242C18.2823 25.9242 16.4304 25.4113 15.2759 24.7045C14.2079 24.0508 14 23.4515 14 22.9242C14 22.7519 14.0744 22.2602 14.8709 21.2556C15.4194 20.5638 16.1239 19.8538 16.9917 19.0393ZM10.2427 9.50632C10.3507 9.40819 10.4582 9.31044 10.5653 9.21305C12.8398 7.14389 14.9941 5.17499 16.9216 2.80002C18.2375 1.17868 20.1727 0.744548 21.7159 0.989423C23.2417 1.23152 24.8472 2.19704 25.6529 3.95764C27.3358 7.63455 31.2461 10.144 36.3448 13.2193C36.4121 13.2599 36.4796 13.3006 36.5474 13.3415C39.1352 14.9018 42.0835 16.6794 44.3496 18.8171C46.7839 21.1134 48.8217 24.185 48.8217 28.3122C48.8217 35.0703 45.6194 39.8429 40.9326 42.7265C36.4849 45.4629 30.9063 46.4017 25.824 46.4017C20.7866 46.4017 14.6204 45.5422 9.55585 42.914C4.30214 40.1877 0 35.3643 0 27.8719C0 18.8141 5.52982 13.789 10.2427 9.50632Z" fill="black"/>
<path d="M16.9917 19.0393C17.319 19.6839 17.7207 20.2834 18.205 20.8351C19.9156 22.7838 22.2255 23.5325 23.4987 23.9451C23.5733 23.9693 23.6444 23.9923 23.7116 24.0144C24.6925 24.3365 25.2731 24.5582 25.6569 24.7743C24.4523 25.4139 22.4717 25.9242 20.5 25.9242C18.2823 25.9242 16.4304 25.4113 15.2759 24.7045C14.2079 24.0508 14 23.4515 14 22.9242C14 22.7519 14.0744 22.2602 14.8709 21.2556C15.4194 20.5638 16.1239 19.8538 16.9917 19.0393Z" fill="black"/>
</svg>
