<svg width="50" height="52" viewBox="0 0 50 52" fill="none" xmlns="http://www.w3.org/2000/svg">
<path fill-rule="evenodd" clip-rule="evenodd" d="M34.1311 45.6437L34.5253 41.6481C34.5382 41.517 34.607 41.3983 34.7137 41.323L42.2706 35.9939C43.9806 34.7879 45.0002 32.8099 45.0002 30.6982V20.0917C45.0002 18.6958 44.5536 17.3377 43.7275 16.221L38.3759 8.98762C37.4845 7.78281 36.2092 6.93678 34.7757 6.58667C34.6299 6.55106 34.4839 6.51671 34.338 6.48236C34.1388 6.43545 33.9394 6.38852 33.7407 6.33846C32.6577 6.06569 29.8296 5.5 25.0002 5.5C20.1708 5.5 17.3427 6.06569 16.2597 6.33846C16.0609 6.38853 15.8617 6.43544 15.6624 6.48235C15.5164 6.51671 15.3705 6.55106 15.2247 6.58667C13.7911 6.93678 12.5158 7.78281 11.6245 8.98762L6.27291 16.221C5.44677 17.3377 5.00018 18.6958 5.00018 20.0917V30.6982C5.00018 32.8099 6.01973 34.7879 7.72978 35.9939L15.2867 41.323C15.3933 41.3983 15.4622 41.517 15.4751 41.6481L15.8693 45.6437C15.8913 45.8672 16.072 46.039 16.2913 46.049C16.3048 46.0496 16.317 46.0499 16.3304 46.051C16.6867 46.0795 21.9945 46.5 25.0002 46.5C28.0058 46.5 33.3136 46.0795 33.67 46.051C33.6834 46.0499 33.6956 46.0496 33.709 46.049C33.9284 46.039 34.1091 45.8672 34.1311 45.6437ZM12.014 29.4636L14.7745 31.3292C15.0666 31.5266 15.4141 31.6483 15.7534 31.5574C17.9727 30.9629 20.8512 26.9399 21.6923 24.3123C21.8503 23.8186 21.7032 23.2917 21.379 22.89L18.8621 19.7715C18.3033 19.0792 17.3281 18.9071 16.5715 19.3673L12.0855 22.0959C11.55 22.4216 11.2224 23.0082 11.2224 23.6413V27.9641C11.2224 28.5666 11.5195 29.1293 12.014 29.4636ZM37.9863 29.4636L35.2258 31.3292C34.9338 31.5266 34.5863 31.6483 34.247 31.5574C32.0276 30.9629 29.1492 26.9399 28.3081 24.3123C28.1501 23.8186 28.2972 23.2917 28.6214 22.89L31.1383 19.7715C31.6971 19.0792 32.6722 18.9071 33.4289 19.3673L37.9148 22.0959C38.4503 22.4216 38.778 23.0082 38.778 23.6413V27.9641C38.778 28.5666 38.4809 29.1293 37.9863 29.4636ZM23.7214 32.0155C23.8993 31.9244 24.5336 31.6165 24.9752 31.6165C24.9835 31.6165 24.9918 31.6166 25.0002 31.6168C25.442 31.628 26.0269 31.9301 26.1868 32.0172C26.2151 32.0326 26.2413 32.051 26.2629 32.0751C26.3359 32.1566 26.3855 32.2653 26.4033 32.3849L27.6345 37.7976C27.6722 38.0503 27.5626 38.2988 27.374 38.4023C27.346 38.4176 27.3149 38.4255 27.2836 38.4309L25.0491 38.8126C25.0329 38.8154 25.0165 38.8173 25.0002 38.8182C24.9672 38.8201 24.934 38.8182 24.9014 38.8126L22.6668 38.4309C22.6355 38.4255 22.6044 38.4176 22.5765 38.4023C22.3878 38.2988 22.2782 38.0503 22.3159 37.7976L23.4988 32.3849C23.5164 32.2675 23.5644 32.1606 23.6352 32.0796C23.6592 32.0523 23.6892 32.032 23.7214 32.0155Z" fill="#F6F65E"/>
<path fill-rule="evenodd" clip-rule="evenodd" d="M22.4095 37.3697L22.3159 37.7976C22.2782 38.0503 22.3878 38.2988 22.5765 38.4023M22.6753 38.4323L22.6668 38.4309L22.6753 38.4323ZM22.6753 38.4323L24.9014 38.8126C24.934 38.8182 24.9672 38.8201 25.0002 38.8182C25.0165 38.8173 25.0329 38.8154 25.0491 38.8126L26.9469 38.4884M27.2752 38.4323L27.2836 38.4309C27.2878 38.4302 27.2919 38.4294 27.296 38.4286C27.3231 38.4233 27.3497 38.4156 27.374 38.4023M27.6345 37.7976L26.4033 32.3849C26.3855 32.2653 26.3359 32.1566 26.2629 32.0751C26.2413 32.051 26.2151 32.0326 26.1868 32.0172C26.0269 31.9301 25.442 31.628 25.0002 31.6168C24.9918 31.6166 24.9835 31.6165 24.9752 31.6165C24.5336 31.6165 23.8993 31.9244 23.7214 32.0155C23.6892 32.032 23.6592 32.0523 23.6352 32.0796C23.5644 32.1606 23.5164 32.2675 23.4988 32.3849L22.4095 37.3697M18.8621 19.7715L21.379 22.89C21.7032 23.2917 21.8503 23.8186 21.6923 24.3123C20.8512 26.9399 17.9727 30.9629 15.7534 31.5574C15.4141 31.6483 15.0666 31.5266 14.7745 31.3292L12.014 29.4636C11.5195 29.1293 11.2224 28.5666 11.2224 27.9641V23.6413C11.2224 23.0082 11.55 22.4216 12.0855 22.0959L16.5715 19.3673C17.3281 18.9071 18.3033 19.0792 18.8621 19.7715ZM11.6245 8.98762L7.60493 6.01383C9.18799 3.87409 11.4636 2.35826 14.0385 1.72942C14.2046 1.68884 14.3677 1.65044 14.5085 1.61732L14.5166 1.6154L15.6624 6.48235C15.5164 6.51671 15.3705 6.55106 15.2247 6.58667C13.7911 6.93678 12.5158 7.78281 11.6245 8.98762ZM6.27291 16.221C5.44677 17.3377 5.00018 18.6958 5.00018 20.0917V30.6982C5.00018 32.8099 6.01973 34.7879 7.72978 35.9939L15.2867 41.323C15.3933 41.3983 15.4622 41.517 15.4751 41.6481L15.8693 45.6437C15.8913 45.8672 16.072 46.039 16.2913 46.049C16.2949 46.0492 16.2985 46.0493 16.302 46.0494C16.3114 46.0498 16.3206 46.0502 16.3304 46.051C16.6867 46.0795 21.9945 46.5 25.0002 46.5C28.0058 46.5 33.3136 46.0795 33.67 46.051C33.6798 46.0502 33.6889 46.0498 33.6984 46.0494C33.7019 46.0493 33.7054 46.0492 33.709 46.049C33.9284 46.039 34.1091 45.8672 34.1311 45.6437L34.5253 41.6481C34.5382 41.517 34.607 41.3983 34.7137 41.323L42.2706 35.9939C43.9806 34.7879 45.0002 32.8099 45.0002 30.6982V20.0917C45.0002 18.6958 44.5536 17.3377 43.7275 16.221L38.3759 8.98762C37.4845 7.78281 36.2092 6.93678 34.7757 6.58667C34.6299 6.55106 34.4839 6.51671 34.338 6.48236C34.1388 6.43545 33.9394 6.38852 33.7407 6.33846C32.6577 6.06569 29.8296 5.5 25.0002 5.5C20.1708 5.5 17.3427 6.06569 16.2597 6.33846C16.0609 6.38853 15.8617 6.43544 15.6624 6.48235L14.5166 1.6154C14.7222 1.56701 14.8836 1.5289 15.0385 1.48989C16.5374 1.11236 19.7766 0.5 25.0002 0.5C30.2238 0.5 33.463 1.11236 34.9619 1.48989C35.1167 1.52889 35.2782 1.56702 35.4837 1.6154L35.4919 1.61731C35.6326 1.65044 35.7957 1.68884 35.9619 1.72942C38.5368 2.35826 40.8124 3.87409 42.3954 6.01383L47.747 13.2472C49.2132 15.2291 50.0002 17.6308 50.0002 20.0917V30.6982C50.0002 34.4174 48.2051 37.9271 45.1522 40.08L39.2969 44.2092L39.107 46.1346C38.847 48.7699 36.7109 50.8872 33.9978 51.0407C33.2794 51.0976 28.1008 51.5 25.0002 51.5C21.8995 51.5 16.721 51.0976 16.0026 51.0407C13.2894 50.8871 11.1534 48.7699 10.8934 46.1346L10.7035 44.2092L4.8482 40.08C1.79531 37.9271 0.000183105 34.4174 0.000183105 30.6982V20.0917C0.000183105 17.6308 0.787113 15.2291 2.25339 13.2472L6.27291 16.221ZM6.27291 16.221L11.6245 8.98762L7.60493 6.01383L2.25339 13.2472L6.27291 16.221ZM35.2258 31.3292L37.9863 29.4636C38.4809 29.1293 38.778 28.5666 38.778 27.9641V23.6413C38.778 23.0082 38.4503 22.4216 37.9148 22.0959L33.4289 19.3673C32.6722 18.9071 31.6971 19.0792 31.1383 19.7715L28.6214 22.89C28.2972 23.2917 28.1501 23.8186 28.3081 24.3123C29.1492 26.9399 32.0276 30.9629 34.247 31.5574C34.5863 31.6483 34.9338 31.5266 35.2258 31.3292Z" fill="black"/>
<path d="M24.9752 31.6165C24.5336 31.6165 23.8993 31.9244 23.7214 32.0155C23.6892 32.032 23.6592 32.0523 23.6352 32.0796C23.5644 32.1606 23.5164 32.2675 23.4988 32.3849L22.4095 37.3697L22.5765 38.4023C22.6044 38.4176 22.6355 38.4255 22.6668 38.4309L22.6753 38.4323L24.9014 38.8126C24.934 38.8182 24.9672 38.8201 25.0002 38.8182C25.0165 38.8173 25.0329 38.8154 25.0491 38.8126L26.9469 38.4884L27.2752 38.4323L27.374 38.4023C27.5626 38.2988 27.6722 38.0503 27.6345 37.7976L26.4033 32.3849C26.3855 32.2653 26.3359 32.1566 26.2629 32.0751C26.2413 32.051 26.2151 32.0326 26.1868 32.0172C26.0269 31.9301 25.442 31.628 25.0002 31.6168C24.9918 31.6166 24.9835 31.6165 24.9752 31.6165Z" fill="black"/>
</svg>
