<svg width="57" height="56" viewBox="0 0 57 56" fill="none" xmlns="http://www.w3.org/2000/svg">
<path fill-rule="evenodd" clip-rule="evenodd" d="M28.6399 9.5L47.1399 28L28.6399 46.5L10.1399 28L28.6399 9.5ZM4.63989 28L28.6399 4L52.6399 28L28.6399 52L4.63989 28ZM16.1399 28L28.6399 15.5L41.1399 28L28.6399 40.5L16.1399 28ZM1.81147 30.8284C0.249368 29.2663 0.249368 26.7337 1.81147 25.1716L25.8115 1.17158C27.3736 -0.390521 29.9062 -0.390521 31.4683 1.17158L55.4683 25.1716C57.0304 26.7337 57.0304 29.2663 55.4683 30.8284L31.4683 54.8284C29.9062 56.3905 27.3736 56.3905 25.8115 54.8284L1.81147 30.8284Z" fill="black"/>
<path d="M16.1399 28L28.6399 15.5L41.1399 28L28.6399 40.5L16.1399 28Z" fill="#F6F65E"/>
<path fill-rule="evenodd" clip-rule="evenodd" d="M4.63989 28L28.6399 4L52.6399 28L28.6399 52L4.63989 28ZM28.6399 9.5L10.1399 28L28.6399 46.5L47.1399 28L28.6399 9.5Z" fill="#F6F65E"/>
</svg>
