<svg width="56" height="50" viewBox="0 0 56 50" fill="none" xmlns="http://www.w3.org/2000/svg">
<path d="M51.5001 18.6H4.50006C4.22392 18.6 4.00006 18.8295 4.00006 19.1125V24.8919C4.00006 25.2854 4.4148 25.5321 4.74813 25.3368L7.38477 23.7925C7.46032 23.7483 7.54583 23.725 7.63284 23.725H8.50006C8.7762 23.725 9.00006 23.9545 9.00006 24.2375V40.125C9.00006 42.9555 11.2386 45.25 14.0001 45.25H41.0001C43.7615 45.25 46.0001 42.9555 46.0001 40.125V24.2375C46.0001 23.9545 46.2239 23.725 46.5001 23.725H47.4189C47.4727 23.725 47.5261 23.7339 47.577 23.7513L51.3419 25.0376C51.6657 25.1483 52.0001 24.9013 52.0001 24.5514V19.1125C52.0001 18.8295 51.7762 18.6 51.5001 18.6Z" fill="#F6F65E"/>
<path d="M9.00006 15.525V13.475C9.00006 11.7767 10.3432 10.4 12.0001 10.4H26.0001V8.35H24.0001C23.4478 8.35 23.0001 7.89109 23.0001 7.325V5.275C23.0001 4.70891 23.4478 4.25 24.0001 4.25H32.0001C32.5523 4.25 33.0001 4.70891 33.0001 5.275V7.325C33.0001 7.89109 32.5523 8.35 32.0001 8.35H30.0001V10.4H44.0001C45.6569 10.4 47.0001 11.7767 47.0001 13.475V15.525H9.00006Z" fill="#F6F65E"/>
<path fill-rule="evenodd" clip-rule="evenodd" d="M5.00006 14.6H4.50006C1.92225 14.6 6.10352e-05 16.714 6.10352e-05 19.1125V24.8919C6.10352e-05 27.5896 2.40553 29.7033 5.00006 29.3944V40.125C5.00006 45.0709 8.93696 49.25 14.0001 49.25H41.0001C46.0632 49.25 50.0001 45.0709 50.0001 40.125V28.8062L50.0487 28.8228C53.1017 29.8659 56.0001 27.5012 56.0001 24.5514V19.1125C56.0001 16.714 54.0779 14.6 51.5001 14.6H51.0001V13.475C51.0001 9.66127 47.9586 6.4 44.0001 6.4H37.0001V5.275C37.0001 2.59345 34.854 0.25 32.0001 0.25H24.0001C21.1461 0.25 19.0001 2.59345 19.0001 5.275V6.4H12.0001C8.04153 6.4 5.00006 9.66127 5.00006 13.475V14.6ZM9.00006 15.525H47.0001V13.475C47.0001 12.7348 46.7449 12.0557 46.3198 11.525C45.7696 10.8381 44.9348 10.4 44.0001 10.4H30.0001V8.35H32.0001C32.5523 8.35 33.0001 7.89109 33.0001 7.325V5.275C33.0001 4.70891 32.5523 4.25 32.0001 4.25H24.0001C23.4478 4.25 23.0001 4.70891 23.0001 5.275V7.325C23.0001 7.89109 23.4478 8.35 24.0001 8.35H26.0001V10.4H12.0001C11.0654 10.4 10.2305 10.8381 9.68031 11.525C9.25522 12.0557 9.00006 12.7348 9.00006 13.475V15.525ZM4.50006 18.6C4.22392 18.6 4.00006 18.8295 4.00006 19.1125V24.8919C4.00006 25.2854 4.4148 25.5321 4.74813 25.3368L7.38477 23.7925C7.46032 23.7483 7.54583 23.725 7.63284 23.725H8.50006C8.7762 23.725 9.00006 23.9545 9.00006 24.2375V40.125C9.00006 42.9555 11.2386 45.25 14.0001 45.25H41.0001C43.7615 45.25 46.0001 42.9555 46.0001 40.125V24.2375C46.0001 23.9545 46.2239 23.725 46.5001 23.725H47.4189C47.4727 23.725 47.5261 23.7339 47.577 23.7513L51.3419 25.0376C51.6657 25.1483 52.0001 24.9013 52.0001 24.5514V19.1125C52.0001 18.8295 51.7762 18.6 51.5001 18.6H4.50006ZM8.50006 25.6967L8.00006 24.843L8.50006 25.6967Z" fill="black"/>
</svg>
