<svg width="54" height="52" viewBox="0 0 54 52" fill="none" xmlns="http://www.w3.org/2000/svg">
<path d="M27.1399 4L33.2058 19.6509H49.6398L38.1398 32L41.6398 48L27.1399 40L12.6398 48L16.1398 32L4.63983 19.6509H21.0739L27.1399 4Z" fill="#F6F65E"/>
<path fill-rule="evenodd" clip-rule="evenodd" d="M30.8695 2.55446C30.2727 1.01474 28.7912 -3.8147e-06 27.1398 -3.8147e-06C25.4885 -3.8147e-06 24.0069 1.01474 23.4102 2.55446L18.3343 15.6509H4.6398C3.04782 15.6509 1.60739 16.595 0.972098 18.0547C0.336803 19.5144 0.627595 21.2119 1.71253 22.3769L11.7844 33.1924L8.7322 47.1452C8.39669 48.679 8.98946 50.2671 10.2478 51.206C11.5062 52.1449 13.1974 52.2607 14.5721 51.5023L27.1398 44.5684L39.7075 51.5023C41.0821 52.2607 42.7734 52.1449 44.0318 51.206C45.2901 50.2672 45.8829 48.679 45.5474 47.1452L42.4952 33.1924L52.5671 22.3769C53.652 21.2119 53.9428 19.5144 53.3075 18.0547C52.6722 16.595 51.2318 15.6509 49.6398 15.6509H35.9454L30.8695 2.55446ZM33.2058 19.6509L27.1399 4L21.0739 19.6509H4.63983L16.1398 32L12.6398 48L27.1399 40L41.6398 48L38.1398 32L49.6398 19.6509H33.2058Z" fill="black"/>
</svg>
