<svg width="52" height="52" viewBox="0 0 52 52" fill="none" xmlns="http://www.w3.org/2000/svg">
<path d="M17.4841 26L38.0647 4H48.0002V14.2667L26.0002 34.8L22.4518 31.1333L35.0302 18.6667L39.4841 12.8L33.6109 17.2L21.0324 29.6667L17.4841 26Z" fill="#F6F65E"/>
<path d="M4.00018 39.9333V47.2667C4.00018 47.6717 4.31792 48 4.70986 48H11.8066C12.1986 48 12.5163 47.6717 12.5163 47.2667V42.8667L17.4841 39.2L23.4678 44.6962C23.7276 44.9348 24.0632 45.0667 24.4108 45.0667H29.5486C30.3325 45.0667 30.9679 44.41 30.9679 43.6V41.5622V38.7704C30.9679 38.1977 30.5186 37.7333 29.9643 37.7333C29.8312 37.7333 29.7008 37.7607 29.5802 37.8123C29.5657 37.8185 29.5513 37.8251 29.537 37.832C29.4331 37.8825 29.3374 37.9516 29.2546 38.0371L28.2021 39.1247L26.7099 40.6667L12.6848 25.4495L12.5163 25.2667L10.4983 21.6H8.96793C8.18404 21.6 7.54857 22.2566 7.54857 23.0667V26.909C7.54857 27.2682 7.67614 27.615 7.90709 27.8834L13.226 34.0667L8.96793 39.2H4.70986C4.31792 39.2 4.00018 39.5283 4.00018 39.9333Z" fill="#F6F65E"/>
<path d="M12.5163 25.2667L14.3514 23.3704C14.5396 23.1759 14.6453 22.9121 14.6453 22.6371C14.6453 22.0643 14.196 21.6 13.6417 21.6H10.4983L12.5163 25.2667Z" fill="#F6F65E"/>
<path fill-rule="evenodd" clip-rule="evenodd" d="M17.2066 44.3764L20.762 47.6421C21.7477 48.5475 23.0447 49.0667 24.4108 49.0667H29.5486C32.6642 49.0667 34.9679 46.4945 34.9679 43.6V38.7704C34.9679 36.925 33.9465 35.2133 32.3557 34.3397L50.7295 17.1909C51.54 16.4344 52.0002 15.3754 52.0002 14.2667V4C52.0002 1.79086 50.2093 0 48.0002 0H38.0647C36.9576 0 35.9 0.458866 35.1436 1.26737L17.7871 19.8209C16.9081 18.5045 15.4209 17.6 13.6417 17.6H8.96793C5.85228 17.6 3.54857 20.1722 3.54857 23.0667V26.909C3.54857 28.2105 4.00971 29.4865 4.87467 30.492L7.99005 34.1136L7.08889 35.2H4.70986C1.98616 35.2 0.000183105 37.4438 0.000183105 39.9333V47.2667C0.000183105 49.7562 1.98616 52 4.70986 52H11.8066C14.5303 52 16.5163 49.7562 16.5163 47.2667V44.8859L17.2066 44.3764ZM4.00018 47.2667V39.9333C4.00018 39.5283 4.31792 39.2 4.70986 39.2H8.96793L13.226 34.0667L7.90709 27.8834C7.67614 27.615 7.54857 27.2682 7.54857 26.909V23.0667C7.54857 22.2566 8.18404 21.6 8.96793 21.6H10.4983H13.6417C14.196 21.6 14.6453 22.0643 14.6453 22.6371C14.6453 22.9121 14.5396 23.1759 14.3514 23.3704L12.5163 25.2667L12.6848 25.4495L28.2021 39.1247L29.2546 38.0371C29.3374 37.9516 29.4331 37.8825 29.537 37.832C29.5513 37.8251 29.5657 37.8185 29.5802 37.8123C29.7008 37.7607 29.8312 37.7333 29.9643 37.7333C30.5186 37.7333 30.9679 38.1977 30.9679 38.7704V41.5622V43.6C30.9679 44.41 30.3325 45.0667 29.5486 45.0667H24.4108C24.0632 45.0667 23.7276 44.9348 23.4678 44.6962L17.4841 39.2L12.5163 42.8667V47.2667C12.5163 47.6717 12.1986 48 11.8066 48H4.70986C4.31792 48 4.00018 47.6717 4.00018 47.2667ZM38.0647 4L17.4841 26L21.0324 29.6667L33.6109 17.2L39.4841 12.8L35.0302 18.6667L22.4518 31.1333L26.0002 34.8L48.0002 14.2667V4H38.0647Z" fill="black"/>
<path d="M12.6848 25.4495L26.7099 40.6667L28.2021 39.1247L12.6848 25.4495Z" fill="black"/>
</svg>
