<svg width="46" height="54" viewBox="0 0 46 54" fill="none" xmlns="http://www.w3.org/2000/svg">
<path fill-rule="evenodd" clip-rule="evenodd" d="M4.00003 20.1758L23 4L42 20.1758L30 50H16L4.00003 20.1758ZM18.5 47.4725L9.00003 21.1868L15.5 23.7143L23 7.03297L30.5 23.7143L37 21.1868L27.5 47.4725H26L29 25.2308H17L20 47.4725H18.5Z" fill="#F6F65E"/>
<path fill-rule="evenodd" clip-rule="evenodd" d="M4.00003 20.1758L23 4L42 20.1758L30 50H16L4.00003 20.1758ZM37 21.1868L30.5 23.7143L23 7.03297L15.5 23.7143L9.00003 21.1868L18.5 47.4725H20L17 25.2308H29L26 47.4725H27.5L37 21.1868ZM0.289108 21.6689C-0.353022 20.073 0.0971407 18.2453 1.40699 17.1301L20.407 0.954287C21.9015 -0.318096 24.0985 -0.318096 25.593 0.954287L44.593 17.1301C45.9028 18.2453 46.353 20.073 45.7109 21.6689L33.7109 51.4931C33.1014 53.0078 31.6326 54 30 54H16C14.3673 54 12.8985 53.0078 12.2891 51.4931L0.289108 21.6689Z" fill="black"/>
</svg>
