<svg width="51" height="42" viewBox="0 0 51 42" fill="none" xmlns="http://www.w3.org/2000/svg">
<path d="M7.10843 7.33812C3.78897 10.6576 3.78897 16.0395 7.10843 19.3589L25.2706 37.01C25.4645 37.1986 25.7732 37.1986 25.9673 37.0102L44.1501 19.3589C47.4696 16.0395 47.4696 10.6576 44.1501 7.33812C40.8307 4.01866 35.4488 4.01866 32.1293 7.33812L25.9585 13.0349C25.7668 13.2119 25.4711 13.2117 25.2796 13.0344L19.1292 7.33812C15.8098 4.01866 10.4279 4.01866 7.10843 7.33812Z" fill="#F6F65E"/>
<path fill-rule="evenodd" clip-rule="evenodd" d="M4.32064 22.2274C4.307 22.2142 4.29345 22.2008 4.28 22.1874C-0.601553 17.3058 -0.601553 9.39124 4.28 4.50969C9.14178 -0.352093 17.0121 -0.371782 21.8982 4.45062L25.6232 7.90056L29.3628 4.44815C34.2492 -0.371776 42.1176 -0.351259 46.9785 4.50969C51.8601 9.39124 51.8601 17.3058 46.9785 22.1874C46.9712 22.1947 46.9638 22.2021 46.9564 22.2094C46.9497 22.2159 46.943 22.2225 46.9363 22.229L28.7535 39.8803L25.9673 37.0102L44.1501 19.3589C47.4696 16.0395 47.4696 10.6576 44.1501 7.33812C40.8307 4.01866 35.4488 4.01866 32.1293 7.33812L25.9585 13.0349C25.7668 13.2119 25.4711 13.2117 25.2796 13.0344L19.1292 7.33812C15.8098 4.01866 10.4279 4.01866 7.10843 7.33812C3.78897 10.6576 3.78897 16.0395 7.10843 19.3589L25.2706 37.01L22.4828 39.8785L4.32064 22.2274ZM25.2706 37.01C25.4645 37.1986 25.7732 37.1986 25.9673 37.0102L28.7535 39.8803C27.0068 41.5759 24.2284 41.5751 22.4828 39.8785L25.2706 37.01Z" fill="black"/>
</svg>
