<svg width="30" height="62" viewBox="0 0 30 62" fill="none" xmlns="http://www.w3.org/2000/svg">
<path fill-rule="evenodd" clip-rule="evenodd" d="M7.45256 20.5604C6.53005 19.5 5.82737 18.2434 5.41541 16.8614C5.14517 15.9548 5.00003 14.9944 5.00003 14C5.00003 8.47715 9.47718 4 15 4C20.5229 4 25 8.47715 25 14C25 14.7699 24.913 15.5195 24.7483 16.2394C24.376 17.8669 23.6065 19.343 22.5474 20.5604C22.1049 21.0691 21.6118 21.5326 21.076 21.9431C20.4358 22.4335 19.7347 22.8483 18.9859 23.1741L26 27L23 57.5H7.00003L4.00003 27L11.0142 23.1741C10.24 22.8372 9.51666 22.4053 8.85907 21.8929C8.34829 21.4949 7.87713 21.0485 7.45256 20.5604ZM3.88169 22.5082C2.07526 20.1516 0.999988 17.2028 0.999988 14C0.999988 6.26801 7.268 0 15 0C22.732 0 29 6.26801 29 14C29 17.2028 27.9247 20.1516 26.1183 22.5082L27.9154 23.4884C29.3247 24.2571 30.1379 25.7939 29.9808 27.3916L26.9808 57.8916C26.7794 59.9392 25.0575 61.5 23 61.5H6.99999C4.9425 61.5 3.2206 59.9392 3.0192 57.8916L0.0191982 27.3916C-0.137945 25.7939 0.675266 24.2571 2.08458 23.4884L3.88169 22.5082Z" fill="black"/>
<path d="M4.00003 27L7.00003 57.5H23L26 27L18.9859 23.1741C19.7347 22.8483 20.4358 22.4335 21.076 21.9431C21.6118 21.5326 22.1049 21.0691 22.5474 20.5604C23.6065 19.343 24.376 17.8669 24.7483 16.2394C24.913 15.5195 25 14.7699 25 14C25 8.47715 20.5229 4 15 4C9.47718 4 5.00003 8.47715 5.00003 14C5.00003 14.9944 5.14517 15.9548 5.41541 16.8614C6.01699 18.8794 7.23852 20.6302 8.85907 21.8929C9.51666 22.4053 10.24 22.8372 11.0142 23.1741L4.00003 27Z" fill="#F6F65E"/>
</svg>
