<svg width="54" height="42" viewBox="0 0 54 42" fill="none" xmlns="http://www.w3.org/2000/svg">
<path d="M5.00018 22.5455H18.0219L17.1524 18.4242H4.00018L5.00018 22.5455Z" fill="black"/>
<path d="M35.9784 22.5455H49.0002L50.0002 18.4242H36.848L35.9784 22.5455Z" fill="black"/>
<path fill-rule="evenodd" clip-rule="evenodd" d="M53.7175 19.9041C53.8999 19.4464 54.0002 18.947 54.0002 18.4242V13.2727C54.0002 6.0558 48.2916 0 41.0002 0H13.0002C5.70876 0 0.000183105 6.0558 0.000183105 13.2727V18.4242C0.000183105 18.947 0.100465 19.4463 0.282842 19.9041L1.01979 22.9412C1.03196 23.0635 1.04983 23.1858 1.07348 23.3077L4.07348 38.7622C4.43845 40.6424 6.08494 42 8.00018 42H46.0002C47.9154 42 49.5619 40.6424 49.9269 38.7622L52.9269 23.3077C52.9505 23.1858 52.9684 23.0635 52.9806 22.9412L53.7175 19.9041ZM4.00018 18.4242V13.2727C4.00018 8.15154 8.02962 4 13.0002 4H41.0002C45.9707 4 50.0002 8.15154 50.0002 13.2727V18.4242L49.0002 22.5455L46.0002 38H8.00018L5.00018 22.5455L4.00018 18.4242Z" fill="black"/>
<path d="M27.9053 20.3702C27.5663 20.5595 27.263 20.7933 27.0002 21.0613C26.7374 20.7933 26.434 20.5595 26.0951 20.3702C25.896 20.259 25.7094 20.1083 25.5477 19.9222C25.2146 19.5388 25.0002 19.0206 25.0002 18.4242C25.0002 17.9971 25.1096 17.6142 25.2907 17.2916C25.6698 16.6165 26.3242 16.2424 27.0002 16.2424C27.6762 16.2424 28.3306 16.6165 28.7096 17.2916C28.8907 17.6142 29.0002 17.9971 29.0002 18.4242C29.0002 19.0206 28.7858 19.5388 28.4527 19.9222C28.291 20.1083 28.1043 20.259 27.9053 20.3702Z" fill="black"/>
<path fill-rule="evenodd" clip-rule="evenodd" d="M4.00018 13.2727V18.4242H17.1524L18.0219 22.5455H5.00018L8.00018 38H46.0002L49.0002 22.5455H35.9784L36.848 18.4242H50.0002V13.2727C50.0002 8.15154 45.9707 4 41.0002 4H13.0002C8.02962 4 4.00018 8.15154 4.00018 13.2727ZM21.8029 15.3333C22.8403 13.4856 24.7793 12.2424 27.0002 12.2424C29.221 12.2424 31.1601 13.4856 32.1975 15.3333C32.5752 16.0061 32.8334 16.7591 32.9422 17.5613C32.9878 17.8968 33.0005 18.0857 33.0002 18.4242C33.0002 19.6367 32.6614 20.7676 32.076 21.7221C32.0687 21.734 32.0613 21.746 32.0538 21.7579L32.0517 21.7614L32.0407 21.779L32.0251 21.8036C31.859 22.0653 31.6741 22.3133 31.4724 22.5455C31.013 23.0743 30.4665 23.5212 29.8562 23.8622L31.0002 31.8182H23.0002L24.1442 23.8622C23.5339 23.5212 22.9874 23.0743 22.528 22.5455C22.3128 22.2978 22.1168 22.0322 21.9422 21.7511L21.9243 21.7221C21.8512 21.6028 21.7819 21.4807 21.7166 21.3561C21.2596 20.4836 21.0002 19.4852 21.0002 18.4242C21.0002 18.1779 21.0142 17.935 21.0414 17.6962C21.045 17.6644 21.0488 17.6329 21.0529 17.6012L21.0582 17.5613C21.0564 17.5746 21.0546 17.5879 21.0529 17.6012C21.0488 17.6329 21.045 17.6644 21.0414 17.6962C21.0142 17.935 21.0002 18.1779 21.0002 18.4242C21.0002 19.4852 21.2596 20.4836 21.7166 21.3561C21.7819 21.4807 21.8512 21.6028 21.9243 21.7221L21.9422 21.7511C22.1168 22.0322 22.3128 22.2978 22.528 22.5455C22.9874 23.0743 23.5339 23.5212 24.1442 23.8622L23.0002 31.8182H31.0002L29.8562 23.8622C30.4665 23.5212 31.013 23.0743 31.4724 22.5455C31.6741 22.3133 31.859 22.0653 32.0251 21.8036L32.0407 21.779L32.0517 21.7614L32.0538 21.7579L32.0581 21.7511L32.076 21.7221C32.6614 20.7676 33.0002 19.6367 33.0002 18.4242C33.0005 18.0857 32.9878 17.8968 32.9422 17.5613C32.8334 16.7591 32.5752 16.0061 32.1975 15.3333C31.1601 13.4856 29.221 12.2424 27.0002 12.2424C24.7793 12.2424 22.8403 13.4856 21.8029 15.3333C21.4251 16.0061 21.1669 16.7591 21.0582 17.5613L21.0529 17.6012C21.0546 17.5879 21.0564 17.5746 21.0582 17.5613C21.1669 16.7591 21.4251 16.0061 21.8029 15.3333ZM32.076 21.7221L32.0581 21.7511L32.0538 21.7579C32.0613 21.746 32.0687 21.734 32.076 21.7221ZM27.0002 21.0613C27.263 20.7933 27.5663 20.5595 27.9053 20.3702C28.1043 20.259 28.291 20.1083 28.4527 19.9222C28.7858 19.5388 29.0002 19.0206 29.0002 18.4242C29.0002 17.9971 28.8907 17.6142 28.7096 17.2916C28.3306 16.6165 27.6762 16.2424 27.0002 16.2424C26.3242 16.2424 25.6698 16.6165 25.2907 17.2916C25.1096 17.6142 25.0002 17.9971 25.0002 18.4242C25.0002 19.0206 25.2146 19.5388 25.5477 19.9222C25.7094 20.1083 25.896 20.259 26.0951 20.3702C26.434 20.5595 26.7374 20.7933 27.0002 21.0613Z" fill="black"/>
<path fill-rule="evenodd" clip-rule="evenodd" d="M4.00018 18.4242V13.2727C4.00018 8.15154 8.02962 4 13.0002 4H41.0002C45.9707 4 50.0002 8.15154 50.0002 13.2727V18.4242H36.848L35.9784 22.5455H50.0002L47.0002 38H8.00018L5.00018 22.5455H18.0219L17.1524 18.4242H4.00018ZM23.0002 31.8182H31.0002L29.8562 23.8622C30.4665 23.5212 31.013 23.0743 31.4724 22.5455C32.4225 21.4518 33.0002 20.0075 33.0002 18.4242C33.0002 18.127 32.9798 17.8346 32.9404 17.5485C32.9332 17.496 32.9253 17.4437 32.9168 17.3916C32.7962 16.6528 32.5485 15.9585 32.1975 15.3333C31.1601 13.4856 29.221 12.2424 27.0002 12.2424C24.7793 12.2424 22.8403 13.4856 21.8029 15.3333C21.416 16.0223 21.1546 16.7954 21.0506 17.6194C21.0473 17.645 21.0443 17.6706 21.0414 17.6962C21.0142 17.935 21.0002 18.1779 21.0002 18.4242C21.0002 19.6611 21.3528 20.8132 21.96 21.7795C22.1301 22.0502 22.3201 22.3062 22.528 22.5455C22.9874 23.0743 23.5339 23.5212 24.1442 23.8622L23.0002 31.8182Z" fill="#F6F65E"/>
</svg>
