<svg width="45" height="48" viewBox="0 0 45 48" fill="none" xmlns="http://www.w3.org/2000/svg">
<path d="M4.56126 23.3707C3.6369 32.6149 6.13062 40.8621 7.30283 43.3726C7.45144 43.6909 7.77619 43.8707 8.12745 43.8707H10.5613C11.1135 43.8707 11.5613 43.423 11.5613 42.8707V40.3295C11.5613 40.07 11.7532 39.8545 12.0115 39.8298C21.8002 38.8927 40.069 34.1794 40.5613 21.8707C40.9728 11.5818 39.0918 6.54303 37.7739 4.65277C37.393 4.10642 36.6948 4.01153 36.0632 4.22308C27.293 7.16082 5.80548 10.9278 4.56126 23.3707Z" fill="#F6F65E"/>
<path d="M31.7289 10.1691C14.3362 14.3416 9.88723 26.5849 9.57901 34.0266C9.5687 34.2756 9.88529 34.3747 10.0234 34.1674C13.8474 28.4288 22.7218 16.9649 31.9309 10.622C32.1595 10.4645 31.9988 10.1043 31.7289 10.1691Z" fill="black"/>
<path fill-rule="evenodd" clip-rule="evenodd" d="M3.67844 45.0649C2.23698 41.9778 -0.422721 33.0115 0.5811 22.9728C1.44664 14.3168 9.22151 9.45009 15.9023 6.56106C19.4403 5.03107 23.1726 3.84171 26.4876 2.86694C27.7511 2.49543 28.9208 2.16376 29.9995 1.85791C31.865 1.32897 33.4581 0.877262 34.7927 0.430215C36.3993 -0.107931 39.2879 -0.169636 41.0551 2.36509C43.093 5.28809 44.985 11.3563 44.5581 22.0306C44.2215 30.4453 37.7946 35.6742 31.5159 38.7147C26.3009 41.2401 20.3586 42.699 15.531 43.4235C15.2559 45.9248 13.1358 47.8707 10.5613 47.8707H8.12744C6.44312 47.8707 4.57295 46.9807 3.67844 45.0649ZM7.30283 43.3726C6.13062 40.8621 3.6369 32.6149 4.56126 23.3707C5.60442 12.9385 20.877 8.60483 30.9544 5.74533C32.8967 5.19419 34.646 4.6978 36.0632 4.22308C36.6948 4.01153 37.393 4.10642 37.7739 4.65277C39.0918 6.54303 40.9728 11.5818 40.5613 21.8707C40.069 34.1794 21.8002 38.8927 12.0115 39.8298C11.7532 39.8545 11.5613 40.07 11.5613 40.3295V42.8707C11.5613 43.423 11.1135 43.8707 10.5613 43.8707H8.12745C7.77619 43.8707 7.45144 43.6909 7.30283 43.3726Z" fill="black"/>
</svg>
